<svg id="Layer_1" data-name="Layer 1" xmlns="http://www.w3.org/2000/svg" xmlns:xlink="http://www.w3.org/1999/xlink" width="200" height="139.57" viewBox="0 0 200 139.57"><defs><clipPath id="clip-path"><rect x="9.81" y="38.47" width="177.91" height="101.1" fill="none"/></clipPath></defs><g id="Layer_1-2" data-name="Layer 1"><g opacity="0.15"><g clip-path="url(#clip-path)"><polygon points="168.91 38.47 187.72 139.57 9.81 133.3 168.91 38.47"/></g></g><polygon points="178.54 0 197.91 123.11 4.32 133.3 2.09 0 178.54 0" fill="#e3056d"/><path d="M39.58,98.81A5.13,5.13,0,0,1,38,103a7.23,7.23,0,0,1-4.78,1.63H32.1l.22,5.73-3.31.12-.61-16a35.2,35.2,0,0,1,4.23-.4,8.72,8.72,0,0,1,5.13,1,4.22,4.22,0,0,1,1.82,3.6m-3.35.3a2.52,2.52,0,0,0-.87-2,3.36,3.36,0,0,0-2.3-.59,9.38,9.38,0,0,0-1.29.12l.22,5.75h.79a4.05,4.05,0,0,0,2.7-.85,3,3,0,0,0,.75-2.4" fill="#fff"/><path d="M47,107.83a3.63,3.63,0,0,0,1.34-.26,3.8,3.8,0,0,0,.93-.55c.25-.21.46-.41.65-.59a5.63,5.63,0,0,1,.67,1,1.94,1.94,0,0,1,.31.84,1.22,1.22,0,0,1-.56,1,4.43,4.43,0,0,1-1.51.74,8,8,0,0,1-2,.33,6,6,0,0,1-4.55-1.43,6.44,6.44,0,0,1-1.75-4.61,6.3,6.3,0,0,1,.59-3.14A4.89,4.89,0,0,1,43,99a5.78,5.78,0,0,1,2.78-.8,4.74,4.74,0,0,1,3.68,1.21,5.23,5.23,0,0,1,1.43,3.68,9.27,9.27,0,0,1,0,1.49l-7,.27a3.46,3.46,0,0,0,1,2.24,3,3,0,0,0,2.24.7m.89-4.9c-.07-1.72-.78-2.56-2.13-2.51a2,2,0,0,0-1.56.76,2.93,2.93,0,0,0-.5,1.91Z" fill="#fff"/><path d="M53.6,107.89a6.52,6.52,0,0,1-.35-2l-.42-11.11.36-.06a6,6,0,0,1,.74-.08c1.43,0,2.18.56,2.23,1.84l.06,1.67L59.58,98l.09,2.45-3.36.12.2,5.13c0,1.12.52,1.66,1.43,1.63a2.34,2.34,0,0,0,1-.28,3,3,0,0,0,.84-.63,6.47,6.47,0,0,1,.63,1,1.8,1.8,0,0,1,.18.64,1.15,1.15,0,0,1-.47.88,3.59,3.59,0,0,1-1.26.68,6,6,0,0,1-1.68.3c-1.8.07-3-.59-3.55-2" fill="#fff"/><path d="M66.68,93.07a8.84,8.84,0,0,1,1.15-.16c1.42-.06,2.15.54,2.2,1.79l.55,14.3-3.29.13Z" fill="#fff"/><path d="M76.92,108.73l-3.28.13-.43-11.34.29-.06c.25,0,.51-.06.78-.07,1.19,0,1.88.34,2.09,1.17a4.07,4.07,0,0,1,3.46-1.62,4.18,4.18,0,0,1,2.45.5,2.84,2.84,0,0,1,1.22,1.8,12.7,12.7,0,0,1,.28,2.46l.26,6.76-3.26.12L80.53,102a5.29,5.29,0,0,0-.22-1.58,1.19,1.19,0,0,0-.55-.64,2.15,2.15,0,0,0-1-.16,2.91,2.91,0,0,0-1.52.43,1.07,1.07,0,0,0-.58,1Z" fill="#fff"/><path d="M94.6,98A3.81,3.81,0,0,1,94,99.81,5.79,5.79,0,0,0,92.39,99a4.84,4.84,0,0,0-1.69-.28c-1.07,0-1.59.4-1.57,1.09,0,.54.62.92,1.8,1.13a7.76,7.76,0,0,1,2.31.67A3,3,0,0,1,95,104.38a3.56,3.56,0,0,1-1.21,3,5.35,5.35,0,0,1-3.45,1.22,7.64,7.64,0,0,1-3-.42c-.76-.29-1.15-.66-1.17-1.13a1.82,1.82,0,0,1,.21-.86c.14-.3.32-.62.51-.94a5,5,0,0,0,1.5.79,4.77,4.77,0,0,0,1.71.29q1.81-.08,1.77-1.32a1,1,0,0,0-.46-.9,4.67,4.67,0,0,0-1.75-.52,5.46,5.46,0,0,1-2.78-1.13,3,3,0,0,1-1-2.21,3.08,3.08,0,0,1,1.22-2.61,5.42,5.42,0,0,1,3.27-1.09,7.63,7.63,0,0,1,3,.41q1.06.39,1.14,1.08" fill="#fff"/><path d="M107.54,107.56l-2.18.08a.94.94,0,0,1-.72-.22,1.75,1.75,0,0,1-.24-1,4.11,4.11,0,0,1-3.46,1.58,4.27,4.27,0,0,1-2.45-.51,2.84,2.84,0,0,1-1.22-1.8,12.7,12.7,0,0,1-.28-2.46l-.26-6.64.43-.07c.22,0,.45,0,.67-.06,1.44-.06,2.18.54,2.23,1.81l.18,4.69a5.29,5.29,0,0,0,.22,1.58,1.09,1.09,0,0,0,.55.64,2.15,2.15,0,0,0,1,.16,2.91,2.91,0,0,0,1.52-.43,1.06,1.06,0,0,0,.59-1l-.29-7.64a3.21,3.21,0,0,1,.43-.07,3.79,3.79,0,0,1,.67-.06,2.24,2.24,0,0,1,1.62.45,1.91,1.91,0,0,1,.61,1.47Z" fill="#fff"/><path d="M113.33,97.12a3.56,3.56,0,0,1,1.12-1.1,2.93,2.93,0,0,1,1.46-.47,2.59,2.59,0,0,1,1.34.25,1,1,0,0,1,.53.83,3,3,0,0,1-.09.72,6.22,6.22,0,0,1-.25.87,6.86,6.86,0,0,1-.35.78,3.16,3.16,0,0,0-.89-.51,2.78,2.78,0,0,0-.91-.12,1.91,1.91,0,0,0-1.22.48,1.33,1.33,0,0,0-.48,1l.29,7.38-3.26.12L110.18,96l.29-.06a7,7,0,0,1,.79-.08,2.76,2.76,0,0,1,1.36.26,1.37,1.37,0,0,1,.72.89" fill="#fff"/><path d="M128.92,104a5.33,5.33,0,0,0,.66,2.73,4.5,4.5,0,0,1-1.57.37,2.28,2.28,0,0,1-1.28-.26,1.51,1.51,0,0,1-.64-1,3.78,3.78,0,0,1-1.46,1,5.5,5.5,0,0,1-2,.41,3.79,3.79,0,0,1-2.69-.82,3.34,3.34,0,0,1-1.11-2.56c-.1-2.47,1.8-3.88,5.71-4.25a6.8,6.8,0,0,0,1.08-.07v-.43a1.57,1.57,0,0,0-.53-1.22,2.55,2.55,0,0,0-1.62-.33,5.3,5.3,0,0,0-1.47.27,9.49,9.49,0,0,0-1.89,1,3.16,3.16,0,0,1-.56-.84,2,2,0,0,1-.24-.76c0-.3.21-.6.67-.9a6.18,6.18,0,0,1,1.74-.73,10.63,10.63,0,0,1,2.17-.32,5.15,5.15,0,0,1,3.63.89,4.41,4.41,0,0,1,1.23,3.31Zm-3.17-2.66h-.34a1.82,1.82,0,0,0-.33,0,5.37,5.37,0,0,0-2.47.73,1.66,1.66,0,0,0-.71,1.48,1.55,1.55,0,0,0,.48,1.17,1.69,1.69,0,0,0,1.26.37,3.09,3.09,0,0,0,1.53-.47c.46-.3.68-.59.67-.88Z" fill="#fff"/><path d="M135.38,106.49l-3.28.13-.44-11.33.29-.06a7,7,0,0,1,.79-.08c1.18,0,1.87.35,2.08,1.17a4.09,4.09,0,0,1,3.46-1.62,4.34,4.34,0,0,1,2.45.5A2.84,2.84,0,0,1,142,97a12,12,0,0,1,.28,2.46l.26,6.76-3.26.13L139,99.73a5.94,5.94,0,0,0-.21-1.57,1.14,1.14,0,0,0-.56-.64,2.14,2.14,0,0,0-1-.17,2.91,2.91,0,0,0-1.52.43,1.1,1.1,0,0,0-.59,1Z" fill="#fff"/><path d="M151.21,103.82a3.49,3.49,0,0,0,1.52-.38,3,3,0,0,0,1.09-.87,3.32,3.32,0,0,1,.59.85,2.17,2.17,0,0,1,.29.89,1.15,1.15,0,0,1-.46,1,5.6,5.6,0,0,1-3.39,1,6.22,6.22,0,0,1-3.12-.61,4.82,4.82,0,0,1-2.07-2,7.41,7.41,0,0,1-.8-3.27,6.55,6.55,0,0,1,.61-3.26,5,5,0,0,1,2-2.11,6.37,6.37,0,0,1,2.92-.81,7.33,7.33,0,0,1,1.81.13,4.33,4.33,0,0,1,1.43.53,2.61,2.61,0,0,1,.66.53,1.07,1.07,0,0,1,.2.62,2,2,0,0,1-.18.83,4,4,0,0,1-.52.92A4,4,0,0,0,151,96.69a2.75,2.75,0,0,0-2.15,1,3.9,3.9,0,0,0-.65,2.61A4.47,4.47,0,0,0,149,103a2.57,2.57,0,0,0,2.21.86" fill="#fff"/><path d="M162.32,103.42a4.15,4.15,0,0,0,1.35-.26,3.74,3.74,0,0,0,.92-.55c.25-.21.47-.41.65-.59a5.68,5.68,0,0,1,.68,1,2.07,2.07,0,0,1,.3.84,1.17,1.17,0,0,1-.56,1,4.48,4.48,0,0,1-1.5.74,8,8,0,0,1-2.06.33,6,6,0,0,1-4.55-1.44,7.51,7.51,0,0,1-1.16-7.75,4.88,4.88,0,0,1,1.89-2.06,5.71,5.71,0,0,1,2.79-.8A4.78,4.78,0,0,1,164.75,95a5.17,5.17,0,0,1,1.42,3.68,9.14,9.14,0,0,1,0,1.48l-7,.27a3.41,3.41,0,0,0,1,2.24,2.92,2.92,0,0,0,2.23.71m.89-4.9c-.14-1.68-.86-2.48-2.2-2.48a2,2,0,0,0-1.56.75,3,3,0,0,0-.5,1.92Z" fill="#fff"/><path d="M29.82,25.43q2.45-2.57,8.34-2.78a15.38,15.38,0,0,1,4.92.5,8.56,8.56,0,0,1,4.32,2.93,13.45,13.45,0,0,1,1.69,5.38,55.11,55.11,0,0,1,.72,7.25c.15,4.32-.1,7.32-.77,9-.2,1.34-1.23,2-3.08,2.11-1.47,0-2.31-.36-2.54-1.24a10.94,10.94,0,0,1-4.36,1c-3.4.12-6.12-.67-8.14-2.37a10,10,0,0,1-2.3-6.2,6,6,0,0,1,1.62-4.71,7.85,7.85,0,0,1,5.44-2.43A17.2,17.2,0,0,1,41.21,35c1,0,1.56-.65,1.51-1.84-.1-2.85-3-3.92-5.45-3.84a8,8,0,0,0-3.12.95c-1,.51-2.23,1.21-3.42.74a3.53,3.53,0,0,1-1.86-3.13,3.23,3.23,0,0,1,.95-2.41m5.47,16.1a1.55,1.55,0,0,0,.63,1.35,4.36,4.36,0,0,0,1.47.28,4.59,4.59,0,0,0,2.11-.29,1.52,1.52,0,0,0,1.1-1.57c0-1.22-1-1.93-3-2.14a1.86,1.86,0,0,0-1.71.56,2.52,2.52,0,0,0-.58,1.81" fill="#fff"/><path d="M61.93,47.61c.06,1.08-1.13,1.66-3.6,1.74S54.5,49,54.33,48A79,79,0,0,1,53,35.07q-.27-7.71.61-9.73c.35-1.2,1.31-1.83,2.88-1.88,1,0,2.5.25,2.93,1.28.15.37,0,.88.31,1.18.54.55,1.64,0,2.07-.41a5.25,5.25,0,0,1,1.66-1.22,8.08,8.08,0,0,1,3.17-.77,7.54,7.54,0,0,1,5.32,1.81,6.3,6.3,0,0,1,2.35,4.9,59.08,59.08,0,0,1,.57,6.64c.17,4.92,0,8.51-.62,10.77-.39.78-1.59,1.21-3.61,1.28-1.82.07-2.86-.35-3.11-1.25A5.23,5.23,0,0,1,67,45c-.07-1.91,0-3.82-.08-5.73A12.81,12.81,0,0,0,66.09,34c-.67-1.32-3.17-.92-4.1-.11a2.36,2.36,0,0,0-.61,1.49,18.58,18.58,0,0,0,0,2.36q0-.7.6,9.84" fill="#fff"/><path d="M77.46,22.88a4.69,4.69,0,0,1,1.44-3.49c1.54-1.31,4.92-1.74,6.57-.38,2.06,1.7,2.32,5.59.32,7.4a5.53,5.53,0,0,1-3.7,1.38,4.19,4.19,0,0,1-3.35-1.42,4.81,4.81,0,0,1-1.31-3.49m1.12,8.19c.47-.93,1.67-1.43,3.61-1.5,2.1-.07,3.46.39,4.07,1.39.48.79.79,3.53,1,8.24.15,4.15.07,6.81-.26,8-.35.93-1.68,1.43-4,1.51-2.11.08-3.35-.3-3.74-1.11q-1-2.06-1.23-9c-.15-4.24,0-6.74.56-7.5" fill="#fff"/><path d="M120.24,46c-.39,1-2,1.22-2.94,1.29a3,3,0,0,1-2.93-1.22c-1-1.83-.83-3.85-.7-5.84l.24-3.8c.19-2.7-1.74-2.73-2.25-2.66-.67,0-1,1.19-.88,3.56,0,1.06.07,5,.11,6.05a8.74,8.74,0,0,1-.08,2.5c-.3,1.1-1.26,1.29-2.26,1.49a14.62,14.62,0,0,1-2.54.34,6.58,6.58,0,0,1-2.85-.36C101.61,46.64,102,44,102,42.59c0-1.7,0-3.41-.1-5.12-.08-2.21-.51-3.32-1.3-3.32s-1.62.25-1.76,1a44.39,44.39,0,0,0,0,8.47,6.63,6.63,0,0,1,0,2.94c-.47,1.19-1.54,1.44-2.75,1.49a4.76,4.76,0,0,1-3.67-1,5.72,5.72,0,0,1-1.16-3.23,78.6,78.6,0,0,1-.93-10.62q-.26-7.38.91-9.25.86-1.78,4.63-1.95c2.36-.08,3.64.28,3.87,1.09,0,0,.38,2,.39,2-.47-2.42,4.1-3.3,5.69-3.36q4-.14,5.47,2.76c.51-2,1.9-3,4.19-3.1a4.3,4.3,0,0,1,4.58,3,42.59,42.59,0,0,1,1,8.86,76.8,76.8,0,0,1-.09,8.31,16.15,16.15,0,0,1-.78,4.41" fill="#fff"/><path d="M124.68,22.09a7,7,0,0,1,2.21-1.55A15.9,15.9,0,0,1,133,19.3c3.51-.12,8,.66,9.68,4.22A17.39,17.39,0,0,1,144,28.11a53.45,53.45,0,0,1,.71,7.25,44.68,44.68,0,0,1,0,4.91,14.7,14.7,0,0,1-.93,4.77,3.12,3.12,0,0,1-2.88,1.4c-1.46.06-2.31-.36-2.53-1.24a11,11,0,0,1-4.37,1,12.17,12.17,0,0,1-7.35-1.78,7.77,7.77,0,0,1-2.91-4.71c-.53-2.29-.3-5.05,1.44-6.78a7.92,7.92,0,0,1,5.44-2.44,17.67,17.67,0,0,1,5.51,1.12c1,0,1.56-.64,1.52-1.83a3.71,3.71,0,0,0-.83-2.16,5.46,5.46,0,0,0-4.69-1.68,7.8,7.8,0,0,0-3.12.94c-1,.49-2.19,1.12-3.33.77s-1.9-1.95-2-3.16a3.37,3.37,0,0,1,1-2.4m5.47,16.09a1.51,1.51,0,0,0,.62,1.35,4.36,4.36,0,0,0,1.47.28,4.87,4.87,0,0,0,2.11-.28,1.54,1.54,0,0,0,1.1-1.58c0-1.22-1-1.93-3-2.14a1.9,1.9,0,0,0-1.7.56,2.43,2.43,0,0,0-.58,1.81" fill="#fff"/><path d="M148.33,18.49c.65-1.83,2.77-2.31,4.5-2.28,2,0,3.83.54,4.3,2.71a12.21,12.21,0,0,1,.2,2,38.86,38.86,0,0,1-.5,6,37.65,37.65,0,0,0-.49,6c0,1.25-.06,3.19.82,4.17s2,.81,3.13.81c1.66,0,2.53,1,2.61,3.14a3.4,3.4,0,0,1-1.59,3.42,10.78,10.78,0,0,1-4.89,1.42A7.33,7.33,0,0,1,150.17,43c-1.24-1.53-2-5.17-2.17-10.89q-.1-3.21,0-6.42c0-1.24,0-2.49.05-3.73a11.52,11.52,0,0,1,.31-3.51" fill="#fff"/><path d="M19.3,58.18q2-3.55,9.42-3.82a21.48,21.48,0,0,1,7.05.64,4.3,4.3,0,0,1,3.1,4.39A2.73,2.73,0,0,1,38,61.72a1.5,1.5,0,0,1-.87.28,12.59,12.59,0,0,1-2.29-.21,14.13,14.13,0,0,0-2.34-.2,5.32,5.32,0,0,0-2.75.76,2.63,2.63,0,0,0-1.33,2.43c.09,2.44,3,2.43,4.78,2.47a24.53,24.53,0,0,1,3.92.28q.77.43.81,1.92a2.7,2.7,0,0,1-1,2.49,4,4,0,0,1-1.69.22,23.27,23.27,0,0,0-4,.29c-.5.11-2.17.58-2.2,1.3a12.13,12.13,0,0,0,.68,4.18,14.13,14.13,0,0,1,.7,3.27,5.17,5.17,0,0,1-.12,1.24c-.29,1.26-1.64,1.92-4,2s-3.93-.71-4.9-2.37a29,29,0,0,1-1.87-5.67,45.8,45.8,0,0,1-1.55-9.81c-.13-3.65.36-6.44,1.45-8.37" fill="#fff"/><path d="M44,58.35A9.58,9.58,0,0,1,46.34,58c1.67,0,3.81.49,3.5,2.66A4.72,4.72,0,0,0,49.65,62c.06.34.69.45,1,.29a15.8,15.8,0,0,1,7.93-2.57c1.31,0,3-.25,3.81,1a4.36,4.36,0,0,1,.58,2.18c0,1-.18,3-1.51,3.13l-6,1.5c-2.53.67-4.06,1.45-4.57,2.36a2.86,2.86,0,0,0-.51,2.1A23.55,23.55,0,0,0,51,76a22.6,22.6,0,0,1,.68,4c.09,2.43-2.07,3.56-4.19,3.64a4.32,4.32,0,0,1-4.41-2.29,19.92,19.92,0,0,1-1.28-6c-.38-2.84-.6-5.32-.68-7.45-.15-4.48.16-7.28,1-8.38.21-.51.84-.91,1.91-1.19" fill="#fff"/><path d="M64.3,57.38c.09-3,1.75-4.8,5.1-4.87,4-.07,6.22,5.68,3.23,8.4A5.58,5.58,0,0,1,69,62.29a4.19,4.19,0,0,1-3.35-1.42,4.81,4.81,0,0,1-1.31-3.49m1.12,8.19c.47-.93,1.67-1.43,3.61-1.5s3.46.39,4.06,1.39c.47.79.8,3.54,1,8.23.15,4.15.07,6.82-.26,8-.35.93-1.68,1.43-4,1.51-2.1.07-3.34-.3-3.73-1.11q-1-2.06-1.23-9c-.15-4.23,0-6.73.56-7.49" fill="#fff"/><path d="M90.27,56.27a9,9,0,0,1,3.36.59c4.74,2,5.54,10.76.52,12.88a6.52,6.52,0,0,1-2.27.46,15.18,15.18,0,0,1-2.6-.26c-1.14-.19-3.67-.88-3.6,1.06a2.5,2.5,0,0,0,2,2.11c.7.22,1.46.31,2.17.46a6.22,6.22,0,0,0,4.24-.49c1.39-.71,3-1.47,4.34-.1a2.62,2.62,0,0,1,.66,2.07,6.76,6.76,0,0,1-1,3.55c-1.62,2.32-4.93,3.3-7.62,3.32a15,15,0,0,1-9-2.84A9.62,9.62,0,0,1,80,77.76q-2.64-2.85-2.82-8a15.08,15.08,0,0,1,.27-3c.47-2.75,1.4-5.63,3.43-7.65a9.77,9.77,0,0,1,5.5-2.49,25.6,25.6,0,0,1,3.91-.35m-3,7.92a2.62,2.62,0,0,0,1.47.39,2.49,2.49,0,0,0,1.39-.49,1.38,1.38,0,0,0-.07-2.36,2.46,2.46,0,0,0-1.42-.39,2.65,2.65,0,0,0-1.44.49,1.37,1.37,0,0,0-.39,1.91,1.3,1.3,0,0,0,.48.45" fill="#fff"/><path d="M110.46,79.93c.06,1.08-1.13,1.66-3.6,1.75-1.63,0-3.74.16-4.12-1.82a64.73,64.73,0,0,1-1-7.47c-.14-1.66-.23-3.33-.29-5-.18-5.13,0-8.38.61-9.73a2.62,2.62,0,0,1,1.78-1.72c1.31-.37,3.93-.19,4.16,1.56.16,1.29,1.48,1.16,2.25.34a5,5,0,0,1,1.66-1.22,8.26,8.26,0,0,1,3.17-.78,7.21,7.21,0,0,1,7.7,6.68s0,.09,0,.14a62.23,62.23,0,0,1,.53,6.53c.07,1.81.05,3.62,0,5.44s.11,3.53-.58,5.1c-.61,1.39-2.33,1.47-3.66,1.51a3.82,3.82,0,0,1-2.6-.53,2.29,2.29,0,0,1-.68-1,7.9,7.9,0,0,1-.29-2.27c-.07-1.93,0-3.86-.09-5.79-.08-2.22.14-7.12-3.49-6a2.71,2.71,0,0,0-2.1,2.34,46.41,46.41,0,0,0,.26,6c.12,2,.23,3.93.35,5.9" fill="#fff"/><path d="M146.09,51.71a21.32,21.32,0,0,1,1,5c.35,2.76.59,5.83.7,9.2q.3,8.5-.93,11.5-.65,1.61-3.69,2.46a19.32,19.32,0,0,1-4.59.7,21,21,0,0,1-5-.42,7.06,7.06,0,0,1-4-1.8,10.79,10.79,0,0,1-2.87-7,8.55,8.55,0,0,1,1.66-5.63,7.3,7.3,0,0,1,5.41-2.48,8.83,8.83,0,0,1,3.05.58c.59.2,2.09,1.11,2.55.35A5.83,5.83,0,0,0,140,61a21.88,21.88,0,0,0-.75-4.25c-.37-1.47-1.25-3.55-.61-5,.53-1.26,2.46-1.37,3.6-1.41,2.13-.08,3.41.42,3.83,1.48m-6.23,20c-.05-1.47-.63-2.27-1.75-2.39a9.26,9.26,0,0,0-1.58-.11,2,2,0,0,0-2.1,1.73,3.84,3.84,0,0,0-.09.83c0,1.06,1,1.71,2.85,2a2.5,2.5,0,0,0,1.81-.48,1.74,1.74,0,0,0,.86-1.56" fill="#fff"/><path d="M171.76,58.59a2.3,2.3,0,0,1,0,.74,3.43,3.43,0,0,1-4.2,2.41h0a9.85,9.85,0,0,0-3.84-1,2.2,2.2,0,0,0-2.26,1.33c-.64,2.37,4.13,3.16,5.54,3.46a9,9,0,0,1,4.31,1.92,6.09,6.09,0,0,1,1.65,4.35q.17,4.89-4.62,6.77a19.21,19.21,0,0,1-6.23,1.17,20.37,20.37,0,0,1-5.87-.62,10,10,0,0,1-3.82-1.71,4.06,4.06,0,0,1-1.09-4.27A2.71,2.71,0,0,1,154,70.79a8.14,8.14,0,0,1,3,.93,8.09,8.09,0,0,0,3.11.94c1.23,0,2.62-1.27,1.06-2.16-1-.54-2.26-.44-3.28-.76-2.93-.92-5.8-2.64-6.28-6-.38-2.68,1.11-5,3.62-7a13.91,13.91,0,0,1,8.34-2.89,11.06,11.06,0,0,1,5.38,1.31c1.23.68,2.72,2,2.87,3.46" fill="#fff"/></g></svg>