<?xml version="1.0" encoding="UTF-8"?>
<svg width="42.87mm" height="25.28mm" viewBox="0 0 121.53 71.66" xmlns="http://www.w3.org/2000/svg">
  <path class="cls-1" transform="translate(0 -7.2)" d="m71.74 78.09-0.89 0.51a1.89 1.89 0 0 1-2.7-1.39 5.71 5.71 0 0 1-0.14-1c0-1.34 0-2.69 0.07-4a3 3 0 0 1 0.21-0.87 1.93 1.93 0 0 1 3-0.76c0.08 0.06 0.18 0.1 0.41 0.23v-2.07c0-1.17-0.08-1.1 1-1.1h0.89s0.56 0.2 0.56 0.62v5.11 4.25a4.89 4.89 0 0 1 0 0.55 0.46 0.46 0 0 1-0.53 0.43h-1.16c-0.35-0.01-0.65-0.05-0.72-0.51zm-0.09-4.15h0.06a10.56 10.56 0 0 0-0.22-1.37c0-0.17-0.3-0.4-0.44-0.39a0.69 0.69 0 0 0-0.5 0.39 4.11 4.11 0 0 0-0.17 1.21c0 0.85 0 1.7 0.09 2.54 0 0.29 0.14 0.54 0.48 0.55a0.53 0.53 0 0 0 0.6-0.47 2.76 2.76 0 0 0 0.1-0.63c0.01-0.62 0-1.22 0-1.83z" fill="#71b82a" />
  <path class="cls-1" transform="translate(0 -7.2)" d="m14.65 75v3.06c0 0.36-0.14 0.53-0.5 0.52s-0.93 0-1.4 0a0.42 0.42 0 0 1-0.47-0.48v-4.76-0.55s-0.06-0.55-0.42-0.59-0.69 0.07-0.72 0.47c-0.07 0.73-0.09 1.46-0.1 2.2v3.31c0 0.28-0.13 0.39-0.39 0.39h-1.58c-0.32 0-0.46-0.17-0.46-0.48 0-1.8 0-3.6 0.05-5.4 0-0.51-0.05-1-0.05-1.53v-3c0-0.27 0.07-0.5 0.38-0.5h1.7c0.26 0 0.34 0.15 0.33 0.42 0 0.75 0 1.5 0.05 2.25 0 0.31 0.2 0.41 0.41 0.19a1.17 1.17 0 0 1 1-0.3h0.3a1.75 1.75 0 0 1 1.92 2v2.78z" fill="#71b82a" />
  <path class="cls-1" transform="translate(0 -7.2)" d="M39.7,74.78c0,1,0,2.06,0,3.1,0,.63,0,.69-.65.69a7,7,0,0,1-1,0,3.62,3.62,0,0,1-.64-.29c-.12,0-.3-.08-.37,0a2.68,2.68,0,0,1-1.82.59,2.08,2.08,0,0,1-2-2.36c0-.36.14-.72.22-1.07.22-1,1-1.33,1.86-1.6a7.42,7.42,0,0,0,1.32-.48,1.53,1.53,0,0,0,.57-.68c.15-.32-.16-.76-.51-.84-.51-.11-.79.06-.87.54s-.13.61-.7.61-.85,0-1.27,0-.54-.17-.49-.56a2.33,2.33,0,0,1,2.31-2.16c.72,0,1.44,0,2.16,0a2,2,0,0,1,1.81,2.07v2.47Zm-2.47.86c0-.18-.06-.35-.08-.52s-.14-.29-.35-.22a1.61,1.61,0,0,0-1.16,1.19.73.73,0,0,0,.53.88.69.69,0,0,0,.93-.55C37.16,76.16,37.19,75.89,37.23,75.64Z" fill="#71b82a" />
  <path class="cls-1" transform="translate(0 -7.2)" d="M79.4,74.91c-.51,0-1,0-1.53,0-.29,0-.41.11-.38.42a10.1,10.1,0,0,1,0,1.1c0,.38.21.54.54.58s.63,0,.75-.4a.83.83,0,0,0,.06-.21c.15-.76.23-.83,1-.8a5.79,5.79,0,0,1,1,.11.57.57,0,0,1,.37.37A2.43,2.43,0,0,1,80,78.49a5.48,5.48,0,0,1-2.79.26,2.56,2.56,0,0,1-2-1.64,1.19,1.19,0,0,1-.13-.49c0-1.45,0-2.91.07-4.37a2.39,2.39,0,0,1,2.29-2c.6.06,1.22,0,1.82,0a2.32,2.32,0,0,1,1.92,1.3,3.23,3.23,0,0,1,.24,1.81c0,.33,0,.67,0,1s-.21.6-.65.57-.91,0-1.36,0ZM78.25,73.3c.68,0,.73,0,.72-.58s-.24-.93-.72-.94-.72.23-.72,1C77.53,73.26,77.57,73.3,78.25,73.3Z" fill="#71b82a" />
  <path class="cls-1" transform="translate(0 -7.2)" d="m15.6 74.53c0.07-0.9 0.13-1.81 0.23-2.7a2.25 2.25 0 0 1 1.9-1.59h2a2.27 2.27 0 0 1 2.27 2.33v1.74s-0.11 0.59-0.61 0.6h-2.39s-0.92 0-0.91 0.94a3 3 0 0 0 0.12 0.78c0.1 0.36 0.4 0.42 0.71 0.4a0.56 0.56 0 0 0 0.53-0.52c0.22-1 0.24-1 1.26-0.89l0.38 0.06c0.79 0.06 1 0.37 0.79 1.12a2.46 2.46 0 0 1-1.79 1.84 5.14 5.14 0 0 1-3-0.12 2.39 2.39 0 0 1-1.38-2v-2zm3.15-1.23c0.7 0 0.76 0 0.76-0.64s-0.22-0.88-0.67-0.88-0.79 0.37-0.78 1c0 0.47 0.07 0.52 0.69 0.52z" fill="#71b82a" />
  <path class="cls-1" transform="translate(0 -7.2)" d="M88.42,74.57a26.66,26.66,0,0,1,.3-2.69,2,2,0,0,1,2.11-1.65c.62,0,1.25,0,1.87,0a2.2,2.2,0,0,1,2.12,2.23c0,.64,0,1.28,0,1.92,0,.38-.16.54-.53.53-.94,0-1.88,0-2.81,0-.38,0-.57.09-.54.49s0,.79,0,1.19.32.44.61.43.68,0,.69-.45c0-1.08.33-.95,1.33-.92l.38,0c.68,0,.78.13.74.82A2.44,2.44,0,0,1,93,78.61a4.57,4.57,0,0,1-3.12-.1,2.59,2.59,0,0,1-1-.9,3,3,0,0,1-.39-2c0-.35,0-.71,0-1.06Zm3.24-1.27c.72,0,.77,0,.77-.52,0-.74-.15-.94-.71-.94a.75.75,0,0,0-.77.77C91,73.25,91,73.29,91.66,73.3Z" fill="#71b82a" />
  <path class="cls-1" transform="translate(0 -7.2)" d="M45.2,74.51c0-.73.07-1.5.13-2.26a2.22,2.22,0,0,1,1.81-2,13,13,0,0,1,2.16,0,2.37,2.37,0,0,1,2.26,2.72,9.67,9.67,0,0,0,0,1.32c0,.57-.09.65-.68.65H48.22c-.5,0-.58.09-.6.6,0,.25,0,.51,0,.76,0,.56.28.74.84.72.36,0,.52-.17.52-.56,0-.73,0-.76.78-.76.35,0,.71,0,1.06-.05s.63.13.62.51a2.4,2.4,0,0,1-1.74,2.48,4.34,4.34,0,0,1-3.19-.15,1.94,1.94,0,0,1-1.19-1.68C45.26,76,45.24,75.29,45.2,74.51Zm3.18-1.21c.62,0,.77-.13.77-.68a.75.75,0,0,0-.81-.81c-.42,0-.72.4-.71.94S47.78,73.3,48.38,73.3Z" fill="#71b82a" />
  <path class="cls-1" transform="translate(0 -7.2)" d="M106.93,74.57c0-.51,0-1,0-1.54a2.53,2.53,0,0,1,2.47-2.85,4.89,4.89,0,0,1,2.95.52,1.86,1.86,0,0,1,.85,1.57c.06.74,0,1.48,0,2.22,0,.34-.19.42-.49.42-1,0-1.9,0-2.85,0-.42,0-.62.14-.57.57s.07.81.16,1.21.36.36.65.34a.55.55,0,0,0,.55-.44c.24-.92.25-.92,1.23-.91h.51c.67,0,.78.14.73.82a2.52,2.52,0,0,1-1.79,2.13,4.82,4.82,0,0,1-3.16-.15,2.52,2.52,0,0,1-1.26-2v-2Zm3.17-1.27c.68,0,.73,0,.74-.52s-.29-1-.8-1-.66.3-.65,1S109.41,73.3,110.1,73.3Z" fill="#71b82a" />
  <path class="cls-1" transform="translate(0 -7.2)" d="m3.22 75.37v-3.19c0-0.66-0.05-1.33-0.08-2 0-0.27-0.14-0.38-0.4-0.38s-0.65 0-1 0-0.58-0.15-0.58-0.55-0.05-0.82 0-1.23a0.49 0.49 0 0 1 0.25-0.36 1 1 0 0 1 0.5-0.07h5.18c0.76 0 0.83 0.08 0.82 0.83v0.94a0.42 0.42 0 0 1-0.5 0.44h-0.93c-0.55 0-0.68 0.13-0.68 0.67v5.44 2.16c0 0.37-0.21 0.51-0.58 0.5s-1 0-1.49 0-0.59-0.09-0.59-0.61v-2.59z" fill="#71b82a" />
  <path class="cls-1" transform="translate(0 -7.2)" d="M118.61,72.87a3.08,3.08,0,0,0-.43,0,.62.62,0,0,1-.78-.57.56.56,0,0,0-.67-.51.82.82,0,0,0-.56.34.59.59,0,0,0,.26.81,19.54,19.54,0,0,0,1.9.92,2.7,2.7,0,0,1,1.6,2.42,2.54,2.54,0,0,1-1.83,2.35,4.65,4.65,0,0,1-3.08-.1,2,2,0,0,1-1.27-2.18c0-.14.21-.35.33-.36a4.59,4.59,0,0,1,1.48,0c.22,0,.35.46.55.67a1.63,1.63,0,0,0,.65.44.52.52,0,0,0,.69-.35.74.74,0,0,0-.32-.89c-.64-.33-1.29-.63-1.94-.94a2.51,2.51,0,0,1-.71-4.08,2.85,2.85,0,0,1,1.79-.68,4,4,0,0,1,2.54.5,2.08,2.08,0,0,1,.87,1.86.51.51,0,0,1-.35.32,3.46,3.46,0,0,1-.72,0Z" fill="#71b82a" />
  <path class="cls-1" transform="translate(0 -7.2)" d="M86.77,72.87h-.39c-.66,0-.64,0-.86-.63a.69.69,0,0,0-.48-.43.86.86,0,0,0-.69.25.77.77,0,0,0,.08.73,2.21,2.21,0,0,0,.82.54,4.46,4.46,0,0,1,2.35,1.5A2.83,2.83,0,0,1,88,76.14a2.31,2.31,0,0,1-1.6,2.46,5.27,5.27,0,0,1-3.17,0,2.35,2.35,0,0,1-1.31-2.28c.07-.3.31-.33.56-.33h1c.52,0,.67.08.74.6a.59.59,0,0,0,.53.56.7.7,0,1,0,.45-1.32c-.64-.3-1.29-.58-1.91-.91A2.61,2.61,0,0,1,82,71.73a2.49,2.49,0,0,1,2-1.5,4,4,0,0,1,2.84.4,2.07,2.07,0,0,1,1,1.88c0,.12-.21.3-.34.33a3.84,3.84,0,0,1-.76,0Z" fill="#71b82a" />
  <path class="cls-1" transform="translate(0 -7.2)" d="M28.88,74.55v1.87a.6.6,0,0,0,1.2.1l.09-.8a.48.48,0,0,1,.59-.49c.41,0,.82,0,1.23,0,.16,0,.42.16.43.27a2.83,2.83,0,0,1-.71,2.64,2.94,2.94,0,0,1-1.19.58,4.33,4.33,0,0,1-2.84-.2,2,2,0,0,1-1.23-1.81c-.08-1.41,0-2.83,0-4.25a2.18,2.18,0,0,1,2.26-2.26,11.26,11.26,0,0,1,2.18.19,2.39,2.39,0,0,1,1.52,2.68.44.44,0,0,1-.32.3c-.52,0-1,0-1.57,0-.34,0-.47-.2-.46-.52a1.59,1.59,0,0,0,0-.38c-.07-.32-.22-.61-.6-.6a.57.57,0,0,0-.57.63c0,.43,0,.87,0,1.31v.73Z" fill="#71b82a" />
  <path class="cls-1" transform="translate(0 -7.2)" d="M103.43,74.44c.11-.45.25-.9.33-1.36.11-.7.19-1.41.27-2.11s.14-.65.71-.65H106c.36,0,.48.18.4.52l-.93,4.06-.57,2.57c-.06.25-.14.49-.2.74a.44.44,0,0,1-.49.37h-1.88a.5.5,0,0,1-.54-.47c-.22-1.18-.47-2.36-.72-3.54-.2-1-.42-2-.64-3-.06-.28-.13-.56-.17-.83a.35.35,0,0,1,.4-.43H102c.4,0,.57.21.62.6.16,1.06.34,2.12.51,3.18a2.8,2.8,0,0,0,.09.31Z" fill="#71b82a" />
  <path class="cls-1" transform="translate(0 -7.2)" d="M60.32,74.84c0-.75,0-1.5,0-2.25,0-.31-.1-.49-.44-.48s-.51-.19-.51-.53v-.64c0-.38.12-.64.56-.63.27,0,.39-.14.39-.4,0-.42,0-.85,0-1.27s.14-.58.51-.58a13.6,13.6,0,0,1,1.56.09c.12,0,.27.27.29.44a9.3,9.3,0,0,1,0,1.18c0,.35.13.52.5.55s.59.14.6.66c0,.19,0,.37,0,.56,0,.36-.16.59-.57.57s-.53.12-.52.47c0,1.27,0,2.55.06,3.82a.5.5,0,0,0,.56.54c.38,0,.48.19.48.54,0,1,0,1.07-1,1.15a6.11,6.11,0,0,1-1.48-.09,1.58,1.58,0,0,1-1-1.44c0-.75,0-1.5,0-2.26Z" fill="#71b82a" />
  <path class="cls-1" transform="translate(0 -7.2)" d="M98,70.94l.55-.39a1.6,1.6,0,0,1,.3-.23c.62-.31.91-.14.92.54,0,.51,0,1,0,1.53,0,.32-.13.48-.47.41h-.13c-.84,0-1,.12-1,1,0,1.43-.06,2.86-.07,4.29,0,.38-.15.54-.53.54h-1.4c-.32,0-.47-.11-.47-.45,0-2.37,0-4.73,0-7.1,0-.59.12-.69.7-.7H97C97.41,70.32,97.93,70.18,98,70.94Z" fill="#71b82a" />
  <path class="cls-1" transform="translate(0 -7.2)" d="m42.88 71a3.65 3.65 0 0 1 0.55-0.47 3 3 0 0 1 0.81-0.29c0.25 0 0.39 0.11 0.39 0.38v1.79a0.34 0.34 0 0 1-0.4 0.38c-1.33-0.09-1.23 0.34-1.23 1.31v3.83c0 0.56-0.09 0.64-0.65 0.64h-1.15s-0.58-0.09-0.59-0.57v-2.56-4.38c0-0.56 0.16-0.74 0.72-0.74h0.72c0.43-0.03 0.81 0 0.83 0.68z" fill="#71b82a" />
  <path class="cls-1" transform="translate(0 -7.2)" d="m56.23 74.45v-3.57c0-0.51 0.05-0.56 0.56-0.57h1.11c0.51 0 0.61 0.09 0.63 0.59 0 1.38 0.06 2.77 0.08 4.16v2.64s-0.13 0.87-0.86 0.88h-1s-0.56-0.14-0.55-0.55v-3.58z" fill="#71b82a" />
  <path class="cls-1" transform="translate(0 -7.2)" d="m57.36 67.58a7.92 7.92 0 0 1 0.85 0 0.38 0.38 0 0 1 0.38 0.46v1.18a0.38 0.38 0 0 1-0.43 0.37h-1.52a0.51 0.51 0 0 1-0.35-0.36 6.47 6.47 0 0 1 0-1.32 0.61 0.61 0 0 1 0.36-0.36 3.21 3.21 0 0 1 0.76 0z" fill="#71b82a" />
  <path class="cls-2" transform="translate(0 -7.2)" d="M76.09,38.07c-2.42,6.21-6.83,9.87-13.31,11C54.05,49.83,48.14,46,44.71,38c-.4.37-.82.78-1.26,1.16a8.48,8.48,0,0,1-3.4,2,4,4,0,0,1-3.74-.84c-1.17-1-2.27-2.11-3.42-3.13a7.32,7.32,0,0,0-1.29-.91,2.38,2.38,0,0,0-2.05,0,5.1,5.1,0,0,1-2.32.43A7.13,7.13,0,0,1,24,35.29a17.78,17.78,0,0,1-3.73-3.82c-.56-.72-1.15-1.4-1.73-2.1l-.32-.43.06-.1a2.42,2.42,0,0,1,.32.1,5.51,5.51,0,0,0,4.53.21A18.54,18.54,0,0,0,28.41,26a45.87,45.87,0,0,1,8.47-5.43,10.1,10.1,0,0,1,4.35-1,5.5,5.5,0,0,1,4.47,2.32c.38.5.77,1,1.15,1.48.17.21.31.27.5,0s.29-.26.35-.43a1.21,1.21,0,0,0,.06-.65c-.1-.37-.31-.7-.42-1.06a2.05,2.05,0,0,1,1.27-2.76c.75-.33,1.49-.69,2.23-1a1.33,1.33,0,0,0,.9-1.58,2.28,2.28,0,0,1,1.21-2,8.53,8.53,0,0,1,3.13-1.37,2.68,2.68,0,0,0,1.66-1.13,23.9,23.9,0,0,0,2.47-3.76c0-.13.19-.22.33-.36.29.54.52,1,.82,1.49.58.85,1.25,1.62,1.77,2.49a3,3,0,0,0,2,1.31,8,8,0,0,1,3.46,1.76,1.75,1.75,0,0,1,.69,1.57,1.42,1.42,0,0,0,1,1.65c.71.3,1.41.65,2.11,1a2.16,2.16,0,0,1,1.19,3.09c-.08.19-.16.37-.25.55-.34.67-.26.92.44,1.38.37-.46.75-.92,1.11-1.39a6.31,6.31,0,0,1,2.71-2.19,5.88,5.88,0,0,1,3.05-.31,15.49,15.49,0,0,1,6.19,2.59C89,23.59,91,25.1,93.11,26.6a18.46,18.46,0,0,0,3.94,2.34,6.31,6.31,0,0,0,4.36.36,8,8,0,0,0,.73-.34,2,2,0,0,1,.35-.11l.08.11-.76.89c-1,1.18-1.89,2.41-2.91,3.55a10.12,10.12,0,0,1-4.6,3.17,3.66,3.66,0,0,1-2.42,0c-.34-.13-.69-.25-1-.35a2.53,2.53,0,0,0-2.52.63c-1.13,1.05-2.29,2.07-3.42,3.13a4.41,4.41,0,0,1-3.54,1.34,5.62,5.62,0,0,1-2.7-1.08c-.73-.52-1.39-1.12-2.07-1.69C76.42,38.37,76.27,38.23,76.09,38.07ZM24,29.93a2.63,2.63,0,0,0,.28.24c.87.49,1.74,1,2.64,1.45a5.43,5.43,0,0,0,1.55.51,4.1,4.1,0,0,0,2.87-.86,21.83,21.83,0,0,0,4.18-3.91,4.73,4.73,0,0,1,2.77-1.7,7.71,7.71,0,0,1,4.8.91c.63.31,1.24.67,1.85,1,.45-.89.9-1.75,1.33-2.62a.59.59,0,0,0-.08-.46c-.32-.44-.66-.85-1-1.27a4.52,4.52,0,0,0-3.81-1.88,10.41,10.41,0,0,0-4.74,1.47,54.21,54.21,0,0,0-6.81,4.65,11.15,11.15,0,0,1-4.69,2.3ZM96.65,30l0-.1-.31-.06a12.58,12.58,0,0,1-1.51-.29A11.1,11.1,0,0,1,91.63,28c-1.91-1.36-3.78-2.77-5.72-4.07a15.06,15.06,0,0,0-5.22-2.41,4.65,4.65,0,0,0-4.82,1.37c-.45.5-.88,1-1.29,1.58a.6.6,0,0,0,0,.49c.35.74.75,1.46,1.08,2.21.16.36.31.36.61.18a10.27,10.27,0,0,1,4.78-1.75,4.43,4.43,0,0,1,3.58,1.23c.75.75,1.46,1.55,2.21,2.31a12.26,12.26,0,0,0,3.45,2.66,3.31,3.31,0,0,0,2.91.13c.8-.37,1.57-.79,2.35-1.21C95.94,30.49,96.29,30.24,96.65,30ZM60.22,47.74a14.64,14.64,0,0,0,9.62-3.37,14.23,14.23,0,0,0-.37-22.21,14.75,14.75,0,0,0-6.8-2.92,14.67,14.67,0,0,0-13.48,5,14.08,14.08,0,0,0-3.42,9.17,13.53,13.53,0,0,0,1.6,6.55,14.34,14.34,0,0,0,7.85,6.92A13,13,0,0,0,60.22,47.74ZM23.75,31c0,.12,0,.17,0,.2a12,12,0,0,0,4.8,4.2,4.35,4.35,0,0,0,4.06-.75,7.07,7.07,0,0,1,1-.83,9.55,9.55,0,0,1,4.8-2.18,5.57,5.57,0,0,1,3.31.51c.63.34,1.29.65,1.93,1,.23.12.37.11.41-.19.18-1.32.36-2.63.56-4a.54.54,0,0,0-.27-.6,11.07,11.07,0,0,0-3.66-1.68,4.15,4.15,0,0,0-4.38,1.22,23.67,23.67,0,0,1-3.86,3.76,6,6,0,0,1-3.69,1.46,6.31,6.31,0,0,1-2.87-1C25.17,31.77,24.49,31.37,23.75,31ZM97.09,31,97,30.93c-.72.42-1.43.86-2.17,1.23a8.72,8.72,0,0,1-2,.83,5.12,5.12,0,0,1-4.22-1.14,27.32,27.32,0,0,1-4-3.72,6.58,6.58,0,0,0-1.6-1.29,4.44,4.44,0,0,0-3.21-.13,12.34,12.34,0,0,0-3.2,1.46.64.64,0,0,0-.34.84,12,12,0,0,1,.49,3.82c0,.3.13.35.37.22.52-.26,1-.5,1.55-.79a6,6,0,0,1,4.41-.56,10.77,10.77,0,0,1,3.8,1.86c.87.61,1.5,1.52,2.62,1.83a4.14,4.14,0,0,0,2.58,0,9.87,9.87,0,0,0,3.81-2.86C96.35,32,96.71,31.51,97.09,31ZM33.38,35.17a10.2,10.2,0,0,1,1,.74c.91.83,1.8,1.68,2.71,2.51a3.56,3.56,0,0,0,3.89.79,8.49,8.49,0,0,0,3.24-2.34.81.81,0,0,0,.13-.58c-.05-.54-.16-1.07-.21-1.6a.64.64,0,0,0-.43-.57c-.64-.3-1.29-.58-1.9-.94a5.19,5.19,0,0,0-3.9-.58A10.35,10.35,0,0,0,33.48,35S33.42,35.12,33.38,35.17Zm53.9-.08s0,0,0-.06a9.78,9.78,0,0,0-4.67-2.48,4.26,4.26,0,0,0-2.59.18c-1,.46-2,.92-2.95,1.41a.6.6,0,0,0-.26.4c-.11.6-.17,1.2-.29,1.8a.72.72,0,0,0,.27.79,20.47,20.47,0,0,0,2.1,1.64,3.75,3.75,0,0,0,4.87-.41C84.87,37.25,86.08,36.19,87.28,35.09ZM60.52,8.92l-.27.45c-.34.57-.67,1.15-1,1.69-.65.94-1.36,1.83-2,2.77a3.58,3.58,0,0,0-.69,2.65c.13.7.29.8,1,.69a16.49,16.49,0,0,1,6.3.11.5.5,0,0,0,.42-.15,1.82,1.82,0,0,0,.27-.7,4.06,4.06,0,0,0-.88-2.9c-.83-1.17-1.68-2.32-2.5-3.5A10.9,10.9,0,0,1,60.52,8.92ZM72.4,22a1.72,1.72,0,0,0-.64-2.66c-.64-.26-1.26-.57-1.9-.85a1.35,1.35,0,0,1-1-1.52,1.44,1.44,0,0,0-.54-1.28,6.18,6.18,0,0,0-2.45-1.3l-.81-.24c.41,1.19.66,2.28-.24,3.35A17,17,0,0,1,72.4,22Zm-16.67-7.8a7.44,7.44,0,0,0-2.93,1.32A1.53,1.53,0,0,0,52.1,17a1.2,1.2,0,0,1-.66,1.35c-.66.36-1.33.68-2,1a1.62,1.62,0,0,0-1.11,2.19.52.52,0,0,0,.21.34c.08,0,.25-.08.34-.17a16.51,16.51,0,0,1,6.81-4c.3-.09.3-.21.17-.5a3.17,3.17,0,0,1-.36-1.23A9.87,9.87,0,0,1,55.73,14.22Z" fill="#29326c" />
  <path class="cls-2" transform="translate(0 -7.2)" d="M110,51.58h2.3c.3,0,.54.06.54.44s-.13.68-.52.65c-.72,0-1,.39-1,1s0,1.53,0,2.29c0,.26.14.35.38.35h4.09a.39.39,0,0,0,.44-.45c0-.79,0-1.59-.08-2.38,0-.57-.32-.79-.93-.83s-.6-.19-.58-.64c0-.29.14-.46.44-.46h4.81c.33,0,.44.19.44.5s-.08.57-.45.59-.72,0-.9.36a2,2,0,0,0-.21.81c0,2.07,0,4.14,0,6.21,0,1,.17,1.19,1.15,1.32a.39.39,0,0,1,.38.42c0,.27,0,.55-.33.65a1,1,0,0,1-.3,0h-4.43c-.49,0-.64-.18-.63-.64a.43.43,0,0,1,.45-.46c.79-.07,1-.28,1.11-1.06a25.81,25.81,0,0,0,0-2.64c0-.1-.2-.28-.31-.29-1.41,0-2.82,0-4.22,0-.12,0-.34.18-.34.27,0,1,0,1.93,0,2.89.05.57.37.78,1,.82.31,0,.56,0,.54.47s-.13.63-.56.63h-4.64c-.38,0-.47-.23-.48-.56s.07-.53.47-.55c.79,0,1.07-.38,1.07-1.18q0-3.19,0-6.39c0-.78-.26-1.06-1-1.11-.41,0-.49-.25-.49-.59s.15-.52.51-.52Z" fill="#29326c" />
  <path class="cls-2" transform="translate(0 -7.2)" d="M31.19,57.23a10.2,10.2,0,0,1,.63.84c.41.7.79,1.41,1.19,2.11a2.44,2.44,0,0,0,1.21,1.2c.32.12.23.38.21.62s-.14.45-.41.45c-.72,0-1.45,0-2.17,0a.89.89,0,0,1-.54-.4c-.62-1.07-1.23-2.14-1.79-3.24a2,2,0,0,0-2.07-1.09c-.25,0-.36.12-.36.36,0,.8,0,1.59,0,2.39a.91.91,0,0,0,1,.91c.4,0,.57.14.55.55s-.12.56-.61.56H23.6c-.51,0-.63-.15-.65-.63s.14-.42.42-.47c.93-.14,1.14-.36,1.14-1.3,0-2,0-4,0-6a3,3,0,0,0-.06-.51c-.11-.68-.27-.82-1-.88-.45,0-.62-.28-.54-.72a.41.41,0,0,1,.47-.38c2.14,0,4.28,0,6.43,0a3.47,3.47,0,0,1,2.69,1.34,2.61,2.61,0,0,1-.84,4Zm-4.1-2.31h0v.93c0,.85,0,.85.82.84.32,0,.63,0,.94,0a1.6,1.6,0,0,0,1.48-1.4c.16-1.35-.11-2.06-1.05-2.46A3.44,3.44,0,0,0,28,52.69a.81.81,0,0,0-.89.91C27.08,54,27.09,54.48,27.09,54.92Z" fill="#29326c" />
  <path class="cls-2" transform="translate(0 -7.2)" d="M83,58.51a.75.75,0,0,0,.08-.22c0-1.56,0-3.12-.05-4.68,0-.67-.31-.89-1-.93-.44,0-.55-.16-.55-.61s.22-.5.57-.5c1.06,0,2.11,0,3.16,0,.37,0,.54.13.54.52s-.08.59-.52.6c-.76,0-1,.31-1,1.09,0,2.69,0,5.39,0,8.09,0,.22-.08.59-.22.64a.82.82,0,0,1-1-.17l-2-2.14c-1-1.12-2-2.23-3-3.35-.66-.73-1.32-1.45-2-2.18a1.05,1.05,0,0,1-.17-.29l-.15.08a2,2,0,0,0-.05.34v5.33c0,.86.28,1.16,1.12,1.23.38,0,.43.25.42.55s-.07.54-.43.55H73.61a.5.5,0,0,1-.58-.56c0-.37.16-.53.53-.55.69,0,.93-.27,1-1a5.68,5.68,0,0,0,0-.59V54.11a5.06,5.06,0,0,0,0-.55.86.86,0,0,0-.95-.87c-.36,0-.63-.08-.62-.51s.14-.6.66-.6c.85,0,1.7,0,2.55,0a.85.85,0,0,1,.6.23c1.47,1.59,2.92,3.21,4.38,4.82l1.56,1.68C82.85,58.39,82.94,58.43,83,58.51Z" fill="#29326c" />
  <path class="cls-2" transform="translate(0 -7.2)" d="M40.39,62.57a5.44,5.44,0,0,1-4.67-2,5.37,5.37,0,0,1-1.08-5.07,5.25,5.25,0,0,1,4.55-4,5.81,5.81,0,0,1,5.45,1.66A5.11,5.11,0,0,1,46.08,57a5.44,5.44,0,0,1-2.27,4.58A5.09,5.09,0,0,1,40.39,62.57Zm2.88-5.67.11,0c-.12-.75-.21-1.5-.36-2.25a2.79,2.79,0,0,0-2.45-2.2,2.58,2.58,0,0,0-2.94,1.84,8.43,8.43,0,0,0-.14,5,2.82,2.82,0,0,0,2.32,2.26,2.71,2.71,0,0,0,3-1.58A6.59,6.59,0,0,0,43.27,56.9Z" fill="#29326c" />
  <path class="cls-2" transform="translate(0 -7.2)" d="M62.77,62.47h-4c-.52,0-.67-.18-.62-.68a.42.42,0,0,1,.43-.42c.84-.1,1.1-.37,1.1-1.21,0-2.08,0-4.17,0-6.25a1.88,1.88,0,0,0,0-.34c-.11-.68-.28-.84-1-.89-.46,0-.6-.22-.55-.67a.41.41,0,0,1,.47-.43h.93c2.26,0,4.52,0,6.77,0a.66.66,0,0,1,.78.59c.13.58.29,1.15.45,1.72q.12.43-.3.48A.82.82,0,0,1,66.4,54,3.16,3.16,0,0,0,63,52.7a.84.84,0,0,0-.73.83c0,.83,0,1.67,0,2.51a.33.33,0,0,0,.41.37A9.77,9.77,0,0,0,64,56.15c.41-.12.55-.52.65-.89a.5.5,0,0,1,.64-.45c.37.07.35.35.35.62,0,.89,0,1.79,0,2.68,0,.25,0,.5-.34.54s-.56,0-.64-.39c-.13-.58-.59-.74-1.11-.82-1.27-.21-1.3-.18-1.3,1.07,0,.61,0,1.22,0,1.83s.29,1,.84,1A8.78,8.78,0,0,0,65,61.19a2.44,2.44,0,0,0,1.57-1.27c.24-.36.46-.68,1-.61.31,0,.41.19.36.49-.14.74-.28,1.47-.41,2.21-.07.38-.32.46-.65.46Z" fill="#29326c" />
  <path class="cls-2" transform="translate(0 -7.2)" d="M94.51,62.47h-2c-.34,0-.55-.12-.56-.48s0-.58.43-.64c.62-.1.78-.42.58-1,0-.05,0-.1-.06-.15-.18-.93-.76-1.17-1.65-1.06a16.57,16.57,0,0,1-2,0c-.43,0-.78.08-.89.59a6.16,6.16,0,0,1-.26.67c-.17.51,0,.86.48,1s.47.32.44.65-.26.49-.62.48c-.73,0-1.47,0-2.21,0a.7.7,0,0,1-.51-.32c-.09-.26-.14-.63.21-.78a2.75,2.75,0,0,0,1.33-1.59c.61-1.37,1.2-2.75,1.81-4.13.24-.55.5-1.11.73-1.67s.37-1-.18-1.36a.45.45,0,0,1,.24-.78l1.68-.44a.59.59,0,0,1,.81.39c.79,2,1.57,4,2.37,6,.38.94.79,1.88,1.19,2.81a1.34,1.34,0,0,0,.9.79c.4.12.42.43.38.75s-.33.39-.61.39Zm-4-7.85-.45,1.06-.89,2c-.1.23,0,.36.22.36h2.21c.25,0,.32-.15.24-.37l-1.11-2.75A1.91,1.91,0,0,0,90.55,54.62Z" fill="#29326c" />
  <path class="cls-2" transform="translate(0 -7.2)" d="M19.68,62.47h-2c-.33,0-.55-.09-.57-.47s0-.59.45-.66c.6-.08.75-.41.56-1l0-.08c-.46-1.13-.46-1.13-1.7-1.14-.77,0-1.53,0-2.29,0a.56.56,0,0,0-.41.23,6.47,6.47,0,0,0-.44,1,.65.65,0,0,0,.51.94c.46.09.41.4.39.71s-.23.42-.52.42c-.76,0-1.51,0-2.26,0a.71.71,0,0,1-.55-.32c-.11-.29-.13-.66.29-.82a2,2,0,0,0,1.08-1.14Q13.61,57,15,53.75a.82.82,0,0,0-.25-1.14c-.11-.07-.15-.34-.12-.49a.59.59,0,0,1,.36-.29c.56-.17,1.12-.3,1.68-.45a.59.59,0,0,1,.81.4c.61,1.5,1.2,3,1.8,4.5.54,1.34,1.09,2.67,1.62,4a1.65,1.65,0,0,0,1,1c.38.11.42.39.38.7s-.29.43-.58.43Zm-3.91-7.89c-.5,1.11-.93,2.09-1.37,3.07-.12.28,0,.4.27.4h2.09c.33,0,.39-.14.27-.43-.35-.85-.68-1.71-1-2.57C16,54.93,15.88,54.81,15.77,54.58Z" fill="#29326c" />
  <path class="cls-2" transform="translate(0 -7.2)" d="M98.06,60.46V59.1c0-.26,0-.53.33-.61a.72.72,0,0,1,.83.42,12.53,12.53,0,0,0,.81,1.43,3.24,3.24,0,0,0,1.85,1.23,2,2,0,0,0,2.48-1.69,1.55,1.55,0,0,0-1.21-1.47c-.86-.28-1.74-.49-2.6-.79a3.33,3.33,0,0,1-2.3-1.91,3.18,3.18,0,0,1,2-4.18,4.47,4.47,0,0,1,2.87.19,1.31,1.31,0,0,0,1.4,0c.36-.27.69-.06.74.39.09.73.19,1.46.23,2.19a.78.78,0,0,1-.25.6.58.58,0,0,1-.78-.23,8.88,8.88,0,0,0-.52-.83,3.22,3.22,0,0,0-2.92-1.34,1.35,1.35,0,0,0-1.29.87,1,1,0,0,0,.39,1.3,11.76,11.76,0,0,0,1.77.81c.77.28,1.58.47,2.34.78a3.17,3.17,0,0,1,.64,5.56,4.05,4.05,0,0,1-4.06.59c-.26-.1-.52-.22-.79-.3a1,1,0,0,0-1.13.21.79.79,0,0,1-.64.16c-.11,0-.21-.34-.22-.52,0-.48,0-1,0-1.45Z" fill="#29326c" />
  <path class="cls-2" transform="translate(0 -7.2)" d="M51.88,62.47H47.71c-.5,0-.62-.15-.61-.64a.41.41,0,0,1,.43-.46c.83-.07,1.1-.36,1.11-1.2,0-2.11,0-4.23,0-6.34,0-.69-.4-1.21-1.06-1.15-.38,0-.49-.19-.48-.54s.09-.55.48-.55H52.3c.31,0,.44.15.43.45s0,.6-.4.66c-.92.11-1.13.36-1.13,1.28,0,2,0,4,0,6.08,0,.76.3,1.44,1.33,1.33a8.43,8.43,0,0,0,1.6-.16,4.61,4.61,0,0,0,2.3-2.1.92.92,0,0,1,.43-.36c.53-.13.7.08.58.61-.2.84-.41,1.68-.55,2.53a.61.61,0,0,1-.7.57h-4.3Z" fill="#29326c" />
  <path class="cls-2" transform="translate(0 -7.2)" d="M5.45,62.58a5.18,5.18,0,0,1-5.31-4.2,5.77,5.77,0,0,1,3.69-6.76,4.83,4.83,0,0,1,3.45.09l.64.22a.76.76,0,0,0,.82-.17,1.13,1.13,0,0,1,.6-.2c.33,0,.44.15.45.47,0,.88.09,1.75.15,2.63a.45.45,0,0,1-.37.54.61.61,0,0,1-.7-.34,8.89,8.89,0,0,0-1.14-1.62,2.8,2.8,0,0,0-4.67,1.15,6.42,6.42,0,0,0,0,4.26,3.37,3.37,0,0,0,4.68,2.21A5.22,5.22,0,0,0,9.07,59.8c.3-.27.48-.28.91.06.27.23.07.42-.06.58A5.22,5.22,0,0,1,5.45,62.58Z" fill="#29326c" />
  <path class="cls-2" transform="translate(0 -7.2)" d="M60.44,20A13.68,13.68,0,0,1,70.15,24a13.13,13.13,0,0,1,3,4.63,13.35,13.35,0,0,1,.92,4.52,12.45,12.45,0,0,1-.79,4.71,13.28,13.28,0,0,1-3.54,5.34A14.11,14.11,0,0,1,65.15,46a13.09,13.09,0,0,1-4.4.83,18.74,18.74,0,0,1-3.25-.32,12.06,12.06,0,0,1-5.27-2.34,13.38,13.38,0,0,1-4.86-6.66,12.86,12.86,0,0,1-.68-4.3,13.2,13.2,0,0,1,2.24-7.17A13.78,13.78,0,0,1,60.44,20Zm7.71,15.12-.14,0c-.13-.17-.26-.33-.38-.5L63.31,28a.73.73,0,0,0-.7-.37c-.81,0-1.62,0-2.42,0-.19,0-.49-.11-.48.24s-.13.74.36.89c.81.24.92.4.92,1.23,0,2.3,0,4.6,0,6.9,0,.88-.06,1.6-1,1.94-.15.05-.21.45-.22.69,0,.07.29.22.45.23.94,0,1.88,0,2.81,0,.23,0,.5,0,.53-.29s0-.59-.36-.73c-.85-.32-.91-.44-.92-1.35,0-1.58,0-3.15-.06-4.73,0-.38,0-.76,0-1.15a1,1,0,0,1,.14-.28l.25.13a1.08,1.08,0,0,1,.16.2C64.38,34,66,36.5,67.61,39a1.3,1.3,0,0,0,1.37.72c.56-.06.61-.07.61-.66q0-4.71,0-9.41c0-.63.07-.73.64-1,.12,0,.28-.08.33-.18a2.21,2.21,0,0,0,.25-.75c0-.05-.34-.21-.53-.21-1,0-1.92,0-2.89,0-.16,0-.47.09-.47.14a1.62,1.62,0,0,0,.15.76c.06.13.3.19.47.24a.81.81,0,0,1,.69.89v5A2.34,2.34,0,0,1,68.15,35.07Zm-9.6-5.94h0c0-.33,0-.65,0-1,.06-.71-.2-.62-.63-.48a2.53,2.53,0,0,1-1.54,0,6.7,6.7,0,0,0-3.2-.24,5.64,5.64,0,0,0-3.58,2.34,6.47,6.47,0,0,0-1.07,5.72,5.53,5.53,0,0,0,2.94,3.76,6.3,6.3,0,0,0,4.89.35,4.5,4.5,0,0,0,2.51-1.86c.24-.4.2-.53-.2-.91s-.48,0-.68.12a1.86,1.86,0,0,0-.26.23,4,4,0,0,1-3.61,1.28,3.1,3.1,0,0,1-2.53-1.9,8,8,0,0,1-.29-5.34A3.16,3.16,0,0,1,53,29a3.37,3.37,0,0,1,4.37,1.1,1,1,0,0,0,.87.51c.26,0,.39-.09.36-.38S58.55,29.5,58.55,29.13Z" fill="#29326c" />
  <rect class="cls-1" x="2.36" y="57.91" width="119.17" height=".28" fill="#71b82a" />
</svg>