<?xml version="1.0" encoding="utf-8"?>
<!-- Generator: Adobe Illustrator 26.1.0, SVG Export Plug-In . SVG Version: 6.00 Build 0)  -->
<svg version="1.1" id="Layer_1" xmlns="http://www.w3.org/2000/svg" xmlns:xlink="http://www.w3.org/1999/xlink" x="0px" y="0px"
	 viewBox="0 0 706.7 202.5" style="enable-background:new 0 0 706.7 202.5;" xml:space="preserve">
<style type="text/css">
	.st0{fill:#FFFFFF;}
	.st1{fill:#FC9BC1;}
</style>
<path class="st0" d="M704.7,23c0,2.3-0.4,4.3-1.2,6.2c-0.8,1.9-1.9,3.5-3.3,4.8c-1.4,1.3-3,2.4-4.8,3.1c-1.8,0.7-3.7,1.1-5.7,1.1
	c-2.2,0-4.2-0.4-6-1.2c-1.8-0.8-3.4-1.8-4.7-3.2c-1.3-1.4-2.3-3-3.1-4.8c-0.7-1.9-1.1-3.9-1.1-6c0-2.3,0.4-4.3,1.2-6.2
	c0.8-1.9,1.9-3.5,3.3-4.8c1.4-1.3,3-2.4,4.8-3.1c1.8-0.7,3.7-1.1,5.7-1.1c2,0,3.9,0.4,5.7,1.1c1.8,0.7,3.4,1.8,4.8,3.1
	c1.4,1.3,2.5,2.9,3.3,4.8C704.3,18.7,704.7,20.8,704.7,23z M701.4,23c0-1.8-0.3-3.5-0.9-5.1c-0.6-1.5-1.4-2.9-2.5-4
	c-1.1-1.1-2.3-2-3.7-2.6c-1.4-0.6-2.9-0.9-4.6-0.9c-1.7,0-3.2,0.3-4.6,0.9c-1.4,0.6-2.7,1.5-3.7,2.6c-1.1,1.1-1.9,2.4-2.5,4
	c-0.6,1.5-0.9,3.2-0.9,5.1c0,1.7,0.3,3.4,0.8,4.9c0.5,1.5,1.3,2.8,2.3,4c1,1.1,2.2,2,3.7,2.7c1.4,0.7,3.1,1,4.9,1
	c1.6,0,3.1-0.3,4.6-0.9c1.4-0.6,2.6-1.5,3.7-2.6c1.1-1.1,1.9-2.4,2.5-4C701.1,26.6,701.4,24.9,701.4,23z M686.8,31.7H684V14.9h6.4
	c2,0,3.6,0.4,4.6,1.1c1,0.8,1.5,2,1.5,3.7c0,1.5-0.4,2.6-1.3,3.3c-0.8,0.7-1.9,1.1-3.1,1.3l4.7,7.4h-3.1l-4.3-7.2h-2.6V31.7z
	 M689.9,22.2c0.5,0,1,0,1.5-0.1c0.5,0,0.9-0.2,1.2-0.3c0.4-0.2,0.6-0.5,0.9-0.8c0.2-0.3,0.3-0.8,0.3-1.4c0-0.5-0.1-0.9-0.3-1.2
	c-0.2-0.3-0.5-0.5-0.9-0.7c-0.4-0.2-0.7-0.3-1.2-0.3c-0.4,0-0.9-0.1-1.3-0.1h-3.3v4.9H689.9z"/>
<path class="st0" d="M477.7,108.5h-18.1V66.7c0-4.2-3.1-8.9-11.7-8.9c-9.3,0-13.7,7.8-13.7,7.8v42.9h-18.1V59.8l-2.9-15.1h18.3
	l2.1,15.1c0,0,5.1-16.5,22.6-16.5c13.3,0,21.8,8.4,21.8,17.8L477.7,108.5z"/>
<path class="st0" d="M578.3,63.2c0-4.5,6.3-6.9,9.5-6.9c10.9,0,18.5,7.4,18.5,7.4l7.4-12.7c-7.3-5.1-16-7.7-26-7.7
	c-8.7,0-26.5,2.8-26.5,20.3c0,26,38.6,14.7,38.6,26.3c0,5.4-7.7,7.2-10.6,7.2c-13.1,0-22.3-9.2-22.3-9.2l-7.3,13
	c0,0,11.3,9.1,29.6,9.1c22.6,0,27.6-12.2,27.6-20.4C616.8,64.6,578.3,75,578.3,63.2z"/>
<path class="st0" d="M641.8,63.2c0-4.5,6.3-6.9,9.5-6.9c10.9,0,18.5,7.4,18.5,7.4l7.4-12.7c-7.3-5.1-16-7.7-26-7.7
	c-8.7,0-26.5,2.8-26.5,20.3c0,26,38.6,14.7,38.6,26.3c0,5.4-7.7,7.2-10.6,7.2c-13.1,0-22.3-9.2-22.3-9.2l-7.3,13
	c0,0,11.3,9.1,29.6,9.1c22.6,0,27.6-12.2,27.6-20.4C680.2,64.6,641.8,75,641.8,63.2z"/>
<path class="st0" d="M539.8,89.8c0,0-7.1,7.3-16.6,7.3c-14.7,0-18.2-11.4-18.2-16.2h46.3c0,0,0-3.5,0-9.1c0-11.2-6.8-28.5-31.2-28.5
	c-13.4,0-32.4,7.7-32.4,33.1c0,21.4,15.2,33.6,34.3,33.6c18.6,0,27.3-9.7,27.3-9.7L539.8,89.8z M520.5,56.3
	c6.7,0,14.8,4.7,14.8,15.5H505C505,60.9,513.9,56.3,520.5,56.3z"/>
<path class="st0" d="M403.1,44v19.6h-24.3v44.9h-18.1V59.8l-2.9-15.1h18.3l2.1,15.1c0,0,5.1-15.8,22.6-15.8H403.1z"/>
<path class="st0" d="M283.2,44.7h18.1v41.8c0,4.2,3.1,8.9,11.7,8.9c9.3,0,13.7-7.5,13.7-7.5V44.7h18.1v48.7l2.9,15.1h-18.3
	l-2.1-15.1c0,0-5.1,16.5-22.6,16.5c-13.3,0-21.8-8.4-21.8-17.8L283.2,44.7z"/>
<path class="st0" d="M277.3,39.1V23l-47.6,0l0,0l-17.4,0l2.9,14.9v70.6h18.3V75.7h28.8l2-15.9c0,0-4.3,0-13,0
	c-11.8,0-16.4,5.7-17.8,11.3v-32H277.3z"/>
<g>
	<path class="st0" d="M215.4,179.4l0-25.9c0-4.1-1.5-9.1-1.5-9.1v-0.2h19.3c5.5,0,13.9,3,13.9,11.4c0,7.8-8.8,10.3-8.8,10.3
		s10.9,1.8,10.9,11.3c0,9.9-10.4,11.7-15.5,11.7l-19.7,0v-0.2C213.9,188.5,215.4,183.1,215.4,179.4z M223.6,146.6l0,18.2h6.6
		c2.6,0,4.6-0.9,6-2.7c1.4-1.8,2.2-4,2.2-6.6c0-2.4-0.7-4.5-2-6.3c-1.4-1.8-3.3-2.6-5.8-2.6H223.6z M223.6,186.3h7.3
		c6.5,0,9.7-3.1,9.7-9.2c0-7.5-5.9-9.7-9.7-9.7l-7.3,0.1L223.6,186.3z"/>
	<path class="st0" d="M253.7,157.7h9.2v20.1c0,5.7,4.1,6.5,5.8,6.5c2.1,0,4.3-0.8,6.5-2.5c-0.1-0.9-0.1-1.6-0.1-1.9l0-12.7
		c0-3.8-1.5-9.1-1.5-9.1v-0.2l9.2,0l0,21.7c0,1.9,0.5,4.9,1.5,9.1v0.2h-7.6c-0.5-1.3-1-3.1-1.3-5.5c-2.7,4-6.1,6-10.1,6
		c-5.4,0-10.2-3-10.2-10.5l0-11.7c0-1.9-0.5-4.9-1.5-9.1V157.7z"/>
	<path class="st0" d="M308.4,143.9v-0.2l9.4-1.2l0,36.9c0,1.9,0.5,4.9,1.5,9.1v0.2h-10.7v-0.2c1-4.2,1.5-7.3,1.5-9.1l0-26.5
		C310.1,149.9,309.5,146.9,308.4,143.9z"/>
	<path class="st0" d="M337.2,157.3c3.8,0,6.8,1.5,8.9,4.6v-9.1c0-2.8-0.7-5.8-2-8.9v-0.2l9.8-1.2l0,36.9c0,1.9,0.5,4.9,1.5,9.1v0.2
		h-7.2c0-0.2-1.7-4.7-1.7-4.7c-2.3,3.5-5.5,5.2-9.5,5.2c-7.4,0-12.5-6.2-12.5-15.9C324.5,160,333,157.3,337.2,157.3z M340.1,185.3
		c1.9,0,3.9-1,6-3c0-0.3-0.1-0.9-0.1-1.6l0-16.4c-1.7-1.7-3.6-2.6-5.7-2.6c-2.8,0-7.5,2.1-7.5,11.4
		C332.9,183.8,337.7,185.3,340.1,185.3z"/>
	<path class="st0" d="M379.5,188.5c1-4.2,1.5-7.3,1.5-9.1l0-12.3c0-1.9-0.5-4.9-1.5-9.1v-0.2h9.2v5.3c2.6-3.8,5.9-5.7,10-5.7
		c6.9,0,10.2,4.7,10.2,10.5v11.6c0,1.9,0.5,4.9,1.5,9.1v0.2l-10.7,0v-0.2c0,0,1.5-5.5,1.5-9.1v-10.6c0-4-2.3-6.6-6-6.6
		c-3.5,0-6.5,2.7-6.5,2.7v14.5c0,3.6,1.4,9.1,1.4,9.1v0.2h-10.7V188.5z"/>
	<path class="st0" d="M467.9,156.2c0-5.1,4-12.8,16.1-12.8c4.7,0,9.7,1.2,15.1,3.7v9.1h-0.3c0,0-8.7-10.2-15.9-10.2
		c-6.3,0-7.7,4.6-7.7,6.4c0,10,25.6,8,25.6,23.9c0,11.5-11.6,13.1-16.2,13.1c-4.7,0-10.1-1.4-16.3-4.2v-9.4h0.4
		c0,0,8.5,10.9,16.6,10.9c2.3,0,8.1-1.3,8.1-7.1C493.4,167.7,467.9,171.3,467.9,156.2z"/>
	<path class="st0" d="M521.2,157.3c8,0,15.8,4.9,15.8,15.8c0,13.4-10.4,16.2-15.8,16.2c-6.8,0-15.8-4-15.8-16.2
		C505.5,162.4,513,157.3,521.2,157.3z M514.1,173.1c0,5.8,1.8,13.8,7.1,13.8c5.2,0,7.2-7.7,7.2-13.8c0-8-2.8-13.5-7.2-13.5
		C516.9,159.6,514.1,165,514.1,173.1z"/>
	<path class="st0" d="M556.3,157.3c3.1,0,6.9,1,11.4,2.9l0.1,8.6h-0.3c0,0-5.1-9.2-11-9.2c-6.6,0-7.1,9-7.1,11.5s0.5,13.1,10.1,13.1
		c3.2,0,6.4-1.3,9.6-3.8l0.2,0.1c0,0-3.1,8.8-13.2,8.8c-7,0-15.1-4.6-15.1-16.1C540.9,161.5,549,157.3,556.3,157.3z"/>
	<path class="st0" d="M604.5,157.3c12,0,13.8,10.8,13.8,15.1h-20.5c0,1.7,0.9,11.7,10,11.7c5.4,0,9.9-4.1,9.9-4.1l0.2,0.2
		c0,0-3.4,9.1-13.6,9.1c-6.5,0-15.1-4.4-15.1-16.1C589.3,165.2,593.8,157.3,604.5,157.3z M597.8,170.9l12.7-1.5
		c-0.1-2.9-0.7-9.8-6.1-9.8C597.2,159.6,597.8,170.9,597.8,170.9z"/>
	<path class="st0" d="M633.4,147.9h0.5l0.1,9.8l8.5,0l0,2.5H634v19c0,3.3,1.4,4.9,4.3,4.9c3,0,5-1.6,5-1.6l0.2,0.2
		c0,0-2.4,6.6-9.4,6.6c-2.9,0-7.9-1.4-7.9-9.3v-19.8h-4.5V158C626.6,156.2,630.4,152.8,633.4,147.9z"/>
	<path class="st0" d="M646.2,157.9v-0.2h13v0.2c0,0-0.7,1.3-0.7,3.7c0,2.4,0.8,4.4,0.8,4.4l6.3,14.1l5.7-14.1c0,0,0.7-1.2,0.7-4.2
		c0-2.2-0.7-4-0.7-4v-0.2h7v0.2c-1.4,1.9-2.7,4.3-3.9,7.3L662.7,194c-1.4,3.6-3.3,8.6-9,8.6l-5,0V196h7.6c2.3,0,3.7-2.2,4.2-3.5
		l1.1-2.8l-10.6-23.6c-0.7-1.7-1.6-3.3-2.6-5C647.5,159.6,646.7,158.5,646.2,157.9z"/>
	<path class="st0" d="M415.9,184.1c0-3.3,1.9-5.5,5.6-6.6c-3.9-2.1-5.8-5.2-5.8-9.3c0-7.9,7.1-10.9,13.1-10.9c2.5,0,4.9,0.6,7.1,1.7
		c1.7-3.4,4.3-5.1,7.8-5.1h1l0,5.8l-7.5,0.1c3.2,2.1,4.8,4.9,4.8,8.6c0,6.9-5.7,11-13.1,11c-1.9,0-3.7-0.3-5.4-0.9
		c-1.8,0.6-2.7,1.5-2.7,2.7c0,1.4,1.5,2,4.5,2l10.1,0c5.4,0,9.6,2.6,9.6,8.6c0,9.9-13.2,10.5-15.6,10.5c-12.4,0-13.8-5.7-13.8-7.2
		l4.6-2.2c0,2.1,1.1,7,9.9,7c7.6,0,9.8-4,9.8-5.8c0-2.2-1.6-3.3-4.8-3.3h-10.4C423,190.5,415.9,190.7,415.9,184.1z M423.3,168.3
		c0,2.5,0.7,8.7,5.5,8.7c4.7,0,5.5-6.2,5.5-8.7c0-2.5-0.9-8.7-5.5-8.7C424.1,159.5,423.3,165.8,423.3,168.3z"/>
	<path class="st0" d="M574.2,157.9v-0.2l9.2,0v21.7c0,1.9,0.5,4.9,1.5,9.1v0.2h-10.7v-0.2c0,0,1.5-5.1,1.5-9.1V167
		C575.7,165.2,575.2,162.1,574.2,157.9z M579.3,142.5c-2.5,0-4.5,2-4.5,4.5c0,2.5,2,4.5,4.5,4.5s4.5-2,4.5-4.5
		C583.8,144.5,581.8,142.5,579.3,142.5z"/>
	<path class="st0" d="M290.8,157.9v-0.2h9.2l0,21.7c0,1.9,0.5,4.9,1.5,9.1v0.2l-10.7,0v-0.2c0,0,1.5-5.3,1.5-9.1V167
		C292.3,165.2,291.8,162.1,290.8,157.9z M295.9,142.5c-2.5,0-4.5,2-4.5,4.5c0,2.5,2,4.5,4.5,4.5s4.5-2,4.5-4.5
		C300.4,144.5,298.4,142.5,295.9,142.5z"/>
	<path class="st0" d="M362.1,157.9v-0.2h9.2l0,21.7c0,1.9,0.5,4.9,1.5,9.1v0.2h-10.7v-0.2c0,0,1.5-5.3,1.5-9.1l0-12.3
		C363.6,165.2,363.1,162.1,362.1,157.9z M367.1,142.5c-2.5,0-4.5,2-4.5,4.5s2,4.5,4.5,4.5s4.5-2,4.5-4.5
		C371.6,144.5,369.6,142.5,367.1,142.5z"/>
</g>
<g>
	<g>
		<path class="st1" d="M41.3,104.5c-8.8,0-17,2-23.2,4.1V130c6.2-2.1,14.4-4.1,23.2-4.1c22.1,0,44.6,17.5,71.3,17.5
			c17.6,0,29.1-8.8,29.1-8.8v-21.4c0,0-11.4,8.8-29.1,8.8C85.9,122.1,63.3,104.5,41.3,104.5z"/>
		<path class="st1" d="M112.5,86.4c-26.6,0-49.2-17.5-71.3-17.5c-8.8,0-17,2-23.2,4.1v21.4c6.2-2.1,14.4-4.1,23.2-4.1
			c22.1,0,44.6,17.5,71.3,17.5c17.6,0,29.1-8.8,29.1-8.8V77.5C141.6,77.5,130.2,86.4,112.5,86.4z"/>
	</g>
	<polygon class="st1" points="66,143.6 66,160.5 81.1,192.9 2.9,192.9 18,160.5 18,143.6 	"/>
	<polygon class="st1" points="0,18.9 18,57.6 163,57.6 163,18.9 	"/>
</g>
</svg>
