<svg width="141" height="46" xmlns="http://www.w3.org/2000/svg" xmlns:xlink="http://www.w3.org/1999/xlink"><defs><path id="a" d="M0 .192h80.555v31.975H0z"/><path id="c" d="M.241.142h34.818v30.612H.241z"/><path id="e" d="M.197.199h7.758v7.389H.197z"/><path id="g" d="M0 46h141V.474H0z"/></defs><g fill="none" fill-rule="evenodd"><mask id="b" fill="#fff"><use xlink:href="#a"/></mask><path d="M63.047 26.803c-4.728 0-10.224-2.593-10.564-9.837h10.648c-3.104-1.016-6.655-1.882-10.546-2.565.803-6.192 5.651-8.992 10.462-8.992 3.182 0 10.581 1.057 10.581 10.841 0 7.78-5.466 10.553-10.58 10.553M80.554 16.25c0-9.755-6.872-16.058-17.508-16.058-7.69 0-15.816 4.62-17.277 13.242a124.401 124.401 0 0 0-6.6-.546V.668h-6.865v12.01c-.246 0-.492-.003-.74-.003-4.971 0-9.754.268-14.223.762V.668h-6.864v13.744C6.613 15.094 3.085 15.957 0 16.966h10.478v14.702h6.864V16.966h14.963v14.702h6.865V16.966h6.385c.359 8.987 7.448 15.201 17.492 15.201 10.636 0 17.508-6.247 17.508-15.917" fill="#FEFEFE" mask="url(#b)"/><g transform="translate(105.869 .948)"><mask id="d" fill="#fff"><use xlink:href="#c"/></mask><path d="m13.288 17.175 1.565-3.681 2.4-5.644c.49 1.108 3.79 8.565 4.125 9.325h-8.09Zm21.771 13.58L20.185.141h-5.99L.24 30.754h7.272l3.561-8.373h12.607l3.703 8.373h7.675Z" fill="#FEFEFE" mask="url(#d)"/></g><path d="M92.394 31.299h6.894V18.745L112.99.948h-7.995L95.9 13.738 86.804.947h-7.996l13.586 17.646V31.3ZM10.444 45.526h1.815v-2.548h3.454v-1.529h-3.454v-1.497h3.882v-1.54h-5.697z" fill="#FEFEFE"/><g transform="translate(17.566 38.412)"><mask id="f" fill="#fff"><use xlink:href="#e"/></mask><path d="M4.076 5.994c-1.184 0-2.086-.887-2.086-2.09 0-1.214.902-2.111 2.086-2.111 1.184 0 2.086.897 2.086 2.11 0 1.204-.902 2.09-2.086 2.09m0-5.794C1.903.199.197 1.835.197 3.904c0 2.058 1.706 3.684 3.88 3.684 2.172 0 3.878-1.626 3.878-3.684 0-2.069-1.706-3.705-3.879-3.705" fill="#FEFEFE" mask="url(#f)"/></g><path fill="#FEFEFE" d="M51.388 41.183H48.32v-2.771h-1.795v7.114h1.795v-2.814h3.068v2.814h1.784v-7.114h-1.784z"/><mask id="h" fill="#fff"><use xlink:href="#g"/></mask><path fill="#FEFEFE" mask="url(#h)" d="M75.01 45.526h1.899v-7.114H75.01zM82.51 41.534 81 41.198c-.455-.097-.585-.314-.585-.607 0-.412.38-.737.976-.737.575 0 1.139.336 1.269 1.02l1.757-.359c-.27-1.322-1.42-2.103-3.005-2.103-1.702 0-2.874.879-2.874 2.288 0 1.322.911 1.864 1.953 2.103l1.518.325c.52.108.673.314.673.64 0 .444-.402.747-1.074.747-.727 0-1.248-.325-1.432-1.073l-1.844.358c.196 1.42 1.54 2.2 3.178 2.2 1.617 0 2.994-.802 2.994-2.352 0-1.15-.738-1.832-1.996-2.114M85.929 45.526h1.899v-7.114h-1.899zM93.05 44.363c-1.16 0-2.042-.91-2.042-2.146 0-1.247.883-2.168 2.042-2.168 1.16 0 2.043.921 2.043 2.168 0 1.236-.883 2.146-2.043 2.146m0-5.95a3.767 3.767 0 0 0-3.797 3.804c0 2.114 1.67 3.783 3.797 3.783 2.128 0 3.798-1.67 3.798-3.783a3.768 3.768 0 0 0-3.798-3.805M103.691 42.659l-3.521-4.247h-1.423v7.114h1.714v-4.12l3.521 4.12h1.412v-7.114h-1.703zM109.736 42.723l.885-2.336.896 2.336h-1.781Zm0-4.31-2.918 7.113h1.844l.49-1.296h2.939l.49 1.296h1.833l-2.917-7.114h-1.761ZM119.313 41.619h-1.689v-1.71h1.69c.638 0 1.05.34 1.05.85 0 .52-.412.86-1.05.86m2.803-.881c0-1.391-1.04-2.326-2.609-2.326h-3.67v7.114h1.786v-2.442h.52l2.187 2.442h2.154l-2.274-2.527c1.17-.255 1.906-1.094 1.906-2.261M129.033 42.68h3.547v-1.422h-3.547V39.92h3.864v-1.508h-5.665v7.114h5.697v-1.508h-3.896zM138.055 41.534l-1.508-.336c-.456-.097-.586-.314-.586-.607 0-.412.38-.737.976-.737.575 0 1.14.336 1.27 1.02l1.757-.359c-.271-1.322-1.421-2.103-3.005-2.103-1.703 0-2.874.879-2.874 2.288 0 1.322.91 1.864 1.952 2.103l1.519.325c.52.108.672.314.672.64 0 .444-.401.747-1.074.747-.727 0-1.247-.325-1.431-1.073l-1.844.358c.195 1.42 1.54 2.2 3.178 2.2 1.616 0 2.994-.802 2.994-2.352 0-1.15-.738-1.832-1.996-2.114M30.06 41.619h-1.688v-1.71h1.689c.638 0 1.05.34 1.05.85 0 .52-.412.86-1.05.86m2.803-.881c0-1.391-1.039-2.326-2.609-2.326h-3.67v7.114h1.787v-2.442h.52l2.186 2.442h2.154l-2.273-2.527c1.17-.255 1.905-1.094 1.905-2.261M38.929 39.941h2.24v5.585h1.692v-5.585h2.24v-1.529h-6.172zM56.397 42.68h3.547v-1.422h-3.547V39.92h3.863v-1.508h-5.664v7.114h5.697v-1.508h-3.896zM69.783 43.126l-1.897-4.714H65.99l2.969 7.114h1.657l2.97-7.114h-1.897zM123.909 45.526h1.899v-7.114h-1.899z"/></g></svg>