<svg xmlns="http://www.w3.org/2000/svg" viewBox="0 0 800 221.18" style="enable-background:new 0 0 800 221.18" xml:space="preserve" width="150" height="75"><path fill="#fee3d2" d="M62.43 0v132.25c0 8.15-1.49 16.01-4.46 23.57a65.134 65.134 0 0 1-12.61 20.26 63.927 63.927 0 0 1-18.98 14.27c-7.22 3.57-14.82 5.69-22.81 6.37l-3.57.51 2.8-7.39 1.27-.25c7.31-.85 14.1-2.93 20.39-6.24 6.29-3.31 11.72-7.52 16.31-12.61 4.59-5.1 8.15-10.91 10.7-17.46 2.55-6.54 3.82-13.55 3.82-21.02V0h7.14M233.54 78.99c-4.5-10.36-10.57-19.36-18.22-27.01-7.64-7.64-16.6-13.72-26.87-18.22-10.28-4.5-21.29-6.74-33-6.74-11.73 0-22.77 2.24-33.13 6.74-10.36 4.5-19.37 10.58-27.01 18.22-7.65 7.65-13.72 16.65-18.22 27.01-4.5 10.37-6.75 21.41-6.75 33.13 0 11.73 2.25 22.72 6.75 33 4.5 10.28 10.57 19.28 18.22 27.01 7.64 7.73 16.65 13.8 27.01 18.22 10.36 4.42 21.4 6.63 33.13 6.63 11.72 0 22.72-2.21 33-6.63 10.27-4.42 19.23-10.49 26.87-18.22 3.06-3.08 5.85-6.37 8.4-9.86h-8.99a75.721 75.721 0 0 1-4.38 4.76c-7.05 7.06-15.29 12.61-24.71 16.7-9.43 4.08-19.5 6.11-30.2 6.11-10.71 0-20.82-2.03-30.32-6.11-9.52-4.09-17.79-9.64-24.85-16.7-7.05-7.05-12.61-15.28-16.69-24.72-4.08-9.42-6.12-19.49-6.12-30.2 0-10.69 2.04-20.81 6.12-30.32 4.08-9.51 9.64-17.79 16.69-24.84 7.06-7.05 15.33-12.61 24.85-16.69 9.51-4.08 19.62-6.12 30.32-6.12 10.69 0 20.76 2.04 30.2 6.12 9.42 4.08 17.67 9.64 24.71 16.69 7.05 7.05 12.61 15.33 16.69 24.84 4.08 9.52 6.12 19.63 6.12 30.32 0 4.67-.39 9.24-1.18 13.67h7.23c.72-4.44 1.07-8.99 1.07-13.67.01-11.71-2.24-22.75-6.74-33.12M434.47 119.25v21.41c0 6.97-1.23 13.59-3.69 19.88-2.46 6.29-5.82 11.89-10.07 16.82s-9.3 9.09-15.16 12.49c-5.86 3.4-12.19 5.61-18.98 6.63l-5.1.76v23.95h-6.88v-23.95l-5.1-.76c-6.79-1.02-13.12-3.23-18.98-6.63-5.86-3.4-10.91-7.56-15.16-12.49-4.25-4.93-7.6-10.53-10.07-16.82-2.46-6.29-3.69-12.91-3.69-19.88 0-8.15 1.61-15.84 4.84-23.06 3.23-7.22 7.82-13.55 13.76-18.98.68-.68 1.27-1.19 1.78-1.53 2.04-1.87 4.93-3.99 8.66-6.37 3.74-2.38 7.39-4.25 10.96-5.61-1.36-1.36-2.59-2.63-3.69-3.82s-2.08-2.21-2.93-3.06a9.01 9.01 0 0 1-.89-1.02c-.26-.34-.55-.68-.89-1.02l-.76-.76c-4.25-5.27-6.37-11.38-6.37-18.35 0-7.14 2.21-13.46 6.62-18.98 4.42-5.52 10.19-9.05 17.33-10.58l4.59-.76V2.04h6.88v25.23l3.82 1.27c4.93 1.53 9.17 4.08 12.74 7.64 3.57 3.57 6.2 7.81 7.9 12.74l1.02 2.8h-7.39l-.76-1.27c-1.87-4.93-4.88-8.88-9.05-11.85-4.16-2.97-8.79-4.46-13.89-4.46h-.26c-6.29.17-11.64 2.46-16.05 6.88-4.42 4.42-6.63 9.77-6.63 16.05 0 4.76 1.28 8.92 3.82 12.49h.25a27.85 27.85 0 0 0 4.97 5.99c1.95 1.78 3.91 3.31 5.86 4.59 1.95 1.27 3.86 2.25 5.73 2.93 1.87.68 3.4 1.02 4.59 1.02h3.06l2.8 7.14h-6.12c-6.8 0-13.16 1.32-19.11 3.95-5.95 2.63-11.17 6.16-15.67 10.58s-8.03 9.64-10.58 15.67c-2.55 6.03-3.82 12.44-3.82 19.24 0 11.55 3.57 21.83 10.7 30.83 3.57 4.42 7.69 8.07 12.36 10.96 4.67 2.89 9.73 4.93 15.16 6.12l7.65 1.78v-71.1h6.88v71.1l7.65-1.78c11.04-2.38 20.13-8.07 27.26-17.07 3.57-4.42 6.29-9.26 8.15-14.52 1.87-5.27 2.8-10.7 2.8-16.31v-21.41h7.15M578.83 14.14c-11.13 4.84-20.85 11.38-29.18 19.62-8.32 8.24-14.86 17.92-19.62 29.05-4.76 11.13-7.13 22.98-7.13 35.55 0 12.57 2.38 24.42 7.13 35.55 4.76 11.13 11.3 20.85 19.62 29.18s18.05 14.86 29.18 19.62c11.13 4.76 22.98 7.14 35.55 7.14 13.59 0 26.5-2.8 38.73-8.41l1.53-.77 4.59 5.61-2.55 1.27c-13.42 6.28-27.52 9.43-42.3 9.43-13.59 0-26.37-2.59-38.35-7.77s-22.42-12.23-31.34-21.15c-8.92-8.92-15.97-19.37-21.15-31.34-5.18-11.98-7.77-24.76-7.77-38.35s2.59-26.33 7.77-38.22 12.23-22.3 21.15-31.21c8.92-8.92 19.36-15.97 31.34-21.15C588.01 2.59 600.79 0 614.38 0c14.78 0 28.88 3.14 42.3 9.43l2.55 1.27-4.59 5.61-1.53-.77c-12.57-5.78-25.48-8.66-38.73-8.66-12.57 0-24.42 2.42-35.55 7.26"/><path fill="#fee3d2" d="M747.27 33.76c10.28 4.5 19.24 10.58 26.88 18.22 7.65 7.64 13.72 16.65 18.22 27.01 4.5 10.36 6.75 21.4 6.75 33.13 0 11.72-2.25 22.72-6.75 33-4.5 10.28-10.58 19.28-18.22 27.01-7.64 7.73-16.6 13.8-26.88 18.22-10.28 4.42-21.28 6.62-33 6.62s-22.76-2.21-33.13-6.62c-10.36-4.42-19.37-10.49-27.01-18.22-7.64-7.73-13.72-16.73-18.22-27.01-4.5-10.28-6.75-21.28-6.75-33 0-11.72 2.25-22.76 6.75-33.13 4.5-10.36 10.58-19.37 18.22-27.01 7.65-7.64 16.65-13.72 27.01-18.22 10.36-4.5 21.41-6.75 33.13-6.75s22.73 2.25 33 6.75m-2.8 149.96c9.43-4.08 17.67-9.64 24.72-16.69 7.05-7.05 12.61-15.29 16.69-24.72 4.08-9.43 6.12-19.49 6.12-30.2 0-10.7-2.04-20.81-6.12-30.32-4.08-9.51-9.64-17.79-16.69-24.84-7.05-7.05-15.29-12.61-24.72-16.69-9.43-4.08-19.49-6.12-30.19-6.12-10.7 0-20.81 2.04-30.32 6.12-9.51 4.08-17.79 9.64-24.84 16.69-7.06 7.05-12.62 15.33-16.7 24.85-4.08 9.51-6.12 19.62-6.12 30.32s2.04 20.77 6.12 30.2 9.64 17.67 16.69 24.72c7.05 7.05 15.33 12.61 24.84 16.69 9.51 4.08 19.62 6.12 30.32 6.12 10.71-.01 20.77-2.05 30.2-6.13zM798.73 190.22c.85.93 1.27 2 1.27 3.18 0 1.36-.42 2.46-1.27 3.31s-1.95 1.27-3.31 1.27-2.46-.42-3.31-1.27c-.85-.85-1.27-1.95-1.27-3.31 0-1.19.42-2.25 1.27-3.18.85-.94 1.95-1.4 3.31-1.4 1.35 0 2.46.47 3.31 1.4M169.4 134.38h4.22c1.83 0 3.38.28 4.65.84 1.27.56 2.3 1.28 3.1 2.16.8.88 1.37 1.87 1.73 2.96.36 1.09.53 2.17.53 3.24 0 1.37-.25 2.61-.74 3.71a8.648 8.648 0 0 1-1.98 2.82c-.83.78-1.8 1.38-2.9 1.79-1.1.41-2.27.62-3.5.62h-5.1v-18.14m4.92 16.48c1.05 0 2.04-.17 2.96-.51.92-.34 1.73-.83 2.41-1.46.69-.63 1.22-1.41 1.61-2.32.39-.91.58-1.95.58-3.1 0-1.05-.18-2.03-.55-2.93-.36-.91-.88-1.69-1.56-2.35a7.4 7.4 0 0 0-2.44-1.56c-.95-.38-2.02-.57-3.2-.57h-3v14.81h3.19zM201.12 152.51c-.34-.78-.74-1.73-1.19-2.87-.46-1.14-.93-2.34-1.42-3.61h-6.96c-.49 1.27-.97 2.47-1.42 3.61-.46 1.14-.85 2.09-1.19 2.87h-1.73c.25-.61.59-1.42 1.02-2.42.42-1.01.88-2.11 1.37-3.31l1.53-3.75c.52-1.3 1.03-2.54 1.52-3.75.49-1.2.94-2.3 1.36-3.3.42-1 .76-1.81 1.03-2.44.25.63.59 1.44 1.01 2.44.42 1 .88 2.1 1.37 3.3.49 1.2 1 2.45 1.54 3.75.53 1.29 1.04 2.54 1.54 3.75.49 1.2.94 2.31 1.36 3.31.41 1.01.76 1.82 1.03 2.42h-1.77m-6.35-14.53c-.34.8-.74 1.77-1.21 2.92-.46 1.15-.94 2.36-1.43 3.63h5.79c-.51-1.27-.99-2.48-1.45-3.63-.46-1.15-.86-2.12-1.19-2.92-.04-.07-.08-.18-.13-.34-.05-.16-.09-.31-.13-.44-.04.14-.08.28-.13.44-.04.16-.08.28-.12.34zM208.36 152.51v-18.13h4.39c.76 0 1.5.11 2.21.32.71.21 1.34.54 1.89.98.55.44.99.99 1.32 1.65.33.66.5 1.45.5 2.36 0 1.02-.23 1.98-.68 2.9-.46.92-1.21 1.62-2.26 2.11.15.25.35.59.61 1.02.25.42.53.88.84 1.38.31.5.62 1.02.95 1.56l.95 1.55c.3.49.58.94.84 1.35.26.41.46.73.61.97h-2.11c-.14-.2-.31-.48-.53-.84-.22-.36-.47-.75-.74-1.19l-.86-1.4c-.3-.49-.6-.97-.89-1.45-.29-.47-.56-.92-.82-1.35-.26-.42-.49-.79-.67-1.09-.17.03-.35.05-.53.05H210.1v7.26h-1.74m1.73-8.92h2.69c.81 0 1.49-.14 2.03-.41.54-.27.97-.61 1.28-1 .31-.4.53-.82.66-1.27.13-.45.19-.86.19-1.23 0-.46-.09-.9-.27-1.35-.18-.44-.44-.83-.77-1.18-.34-.34-.77-.63-1.3-.84-.52-.21-1.12-.32-1.8-.32h-2.72v7.6zM226.21 152.51v-18.13h1.73v16.48h9.65v1.65h-11.38M243.1 152.51v-18.13h11.43v1.57h-9.7v6.63h8.68v1.63h-8.68v6.68h10.05v1.62H243.1M267.53 146.19v6.32h-1.75v-6.32c-.22-.37-.51-.87-.88-1.49s-.76-1.3-1.18-2.06c-.42-.75-.87-1.54-1.33-2.36-.47-.82-.91-1.61-1.33-2.36-.42-.75-.81-1.44-1.17-2.06-.36-.62-.64-1.11-.86-1.49h1.95c.31.51.68 1.15 1.12 1.93.44.78.91 1.6 1.41 2.48.5.87 1 1.76 1.5 2.65.5.9.95 1.72 1.36 2.46l.3.76.3-.76c.42-.75.88-1.57 1.37-2.46.49-.9.98-1.78 1.46-2.65l1.37-2.48c.43-.78.8-1.42 1.1-1.93h1.98l-6.72 11.82"/></svg>