<svg xmlns="http://www.w3.org/2000/svg" version="1.1" id="Layer_1" x="0" y="0" style="enable-background:new 0 0 595.3 841.9" xml:space="preserve" viewBox="131.24 263.3 304.54 280.1"><style>.st0{fill:#fff}</style><path class="st0" d="M429.7 346.6c-25.1-50.6-82.4-83.3-146.2-83.3S162.4 296 137.3 346.6c-8 16.2-8.1 35.4-.2 51.5 14.2 29 40 53.2 72.6 68 3.8 1.7 8.3.3 10.4-3.4 2.1-3.7 1.1-8.2-2.3-10.6-26.5-18.6-41.7-46.6-41.7-76.9 0-53.6 48.2-97.2 107.5-97.2 59.2 0 107.5 43.6 107.5 97.2 0 30.3-15.2 58.3-41.7 76.9-3.5 2.4-4.5 6.9-2.3 10.6 1.5 2.6 4.2 4.1 7 4.1 1.1 0 2.3-.2 3.3-.7 32.6-14.8 58.4-39 72.6-68 7.8-16.1 7.7-35.4-.3-51.5"/><path class="st0" d="M283.5 326.6c-26.8 0-48.5 21.7-48.5 48.5s21.7 48.4 48.5 48.4 48.4-21.7 48.4-48.4c.1-26.8-21.6-48.5-48.4-48.5zm-25.1 33.3c-5 0-9-4-9-9s4-9 9-9 9 4 9 9c0 4.9-4 9-9 9zm14.3 9.5c-2.9 0-5.2-2.3-5.2-5.2 0-2.9 2.3-5.2 5.2-5.2 2.9 0 5.2 2.3 5.2 5.2 0 2.9-2.4 5.2-5.2 5.2z"/><path class="st0" d="M139.1 537.3h14.1v5.5h-21V501h6.9v36.3zm20.2-33.3c-.8-.8-1.3-1.9-1.3-3.1 0-1.2.4-2.3 1.3-3.1.8-.8 1.9-1.3 3.1-1.3 1.2 0 2.2.4 3.1 1.3.8.8 1.3 1.9 1.3 3.1 0 1.2-.4 2.3-1.3 3.1s-1.9 1.3-3.1 1.3c-1.2 0-2.3-.4-3.1-1.3zm6.5 5.7v33.1h-6.9v-33.1h6.9zm22.9 5.6h-6.1v27.5h-6.9v-27.5h-3.9v-5.6h3.9v-2.3c0-3.8 1-6.6 3-8.3 2-1.7 5.2-2.6 9.5-2.6v5.7c-2.1 0-3.5.4-4.4 1.2-.8.8-1.3 2.1-1.3 4.1v2.3h6.1v5.5zm36.1 13.5h-25.3c.2 2.6 1.2 4.8 2.9 6.4 1.8 1.6 3.9 2.4 6.5 2.4 3.7 0 6.3-1.5 7.8-4.6h7.4c-1 3-2.8 5.5-5.4 7.5-2.6 1.9-5.9 2.9-9.8 2.9-3.2 0-6-.7-8.5-2.1-2.5-1.4-4.5-3.4-5.9-6-1.4-2.6-2.1-5.6-2.1-9s.7-6.4 2.1-9c1.4-2.6 3.3-4.6 5.8-6 2.5-1.4 5.4-2.1 8.6-2.1 3.1 0 5.9.7 8.4 2 2.4 1.4 4.3 3.3 5.7 5.7 1.4 2.5 2 5.3 2 8.5.1 1.3 0 2.4-.2 3.4zm-6.9-5.5c0-2.5-.9-4.5-2.7-6.1-1.8-1.5-3.9-2.3-6.6-2.3-2.4 0-4.4.8-6.1 2.3-1.7 1.5-2.7 3.5-3 6.1h18.4zm20.1 18.4c-2.2-1-4-2.4-5.3-4.2-1.3-1.8-1.9-3.9-1.9-6.3h7.3c.2 1.8.9 3.3 2.1 4.4 1.3 1.2 3 1.7 5.3 1.7 2.4 0 4.2-.6 5.5-1.7 1.3-1.1 2-2.6 2-4.4 0-1.4-.4-2.5-1.2-3.4-.8-.9-1.8-1.6-3.1-2-1.2-.5-2.9-1-5.1-1.6-2.7-.7-4.9-1.5-6.6-2.2-1.7-.7-3.2-1.9-4.4-3.5-1.2-1.6-1.8-3.6-1.8-6.2 0-2.4.6-4.5 1.8-6.3 1.2-1.8 2.9-3.2 5-4.1s4.7-1.4 7.5-1.4c4 0 7.4 1 9.9 3 2.6 2 4 4.8 4.3 8.3h-7.6c-.1-1.5-.8-2.8-2.2-3.9s-3.1-1.6-5.2-1.6c-2 0-3.6.5-4.8 1.5-1.2 1-1.9 2.4-1.9 4.3 0 1.3.4 2.3 1.2 3.2.8.8 1.8 1.5 3 2s2.8 1 4.9 1.6c2.8.8 5 1.5 6.8 2.3 1.7.8 3.2 1.9 4.4 3.5 1.2 1.6 1.8 3.7 1.8 6.3 0 2.1-.6 4.1-1.7 6-1.1 1.9-2.8 3.4-5 4.5s-4.8 1.7-7.7 1.7c-2.5 0-5.1-.5-7.3-1.5zm60.2-12.9h-25.3c.2 2.6 1.2 4.8 2.9 6.4 1.8 1.6 3.9 2.4 6.5 2.4 3.7 0 6.3-1.5 7.8-4.6h7.4c-1 3-2.8 5.5-5.4 7.5-2.6 1.9-5.9 2.9-9.8 2.9-3.2 0-6-.7-8.5-2.1-2.5-1.4-4.5-3.4-5.9-6-1.4-2.6-2.1-5.6-2.1-9s.7-6.4 2.1-9c1.4-2.6 3.3-4.6 5.8-6 2.5-1.4 5.4-2.1 8.6-2.1 3.1 0 5.9.7 8.4 2 2.4 1.4 4.3 3.3 5.7 5.7 1.4 2.5 2 5.3 2 8.5.1 1.3 0 2.4-.2 3.4zm-6.9-5.5c0-2.5-.9-4.5-2.7-6.1-1.8-1.5-3.9-2.3-6.6-2.3-2.4 0-4.4.8-6.1 2.3-1.7 1.5-2.7 3.5-3 6.1h18.4zm13.7-6.1c1.4-2.6 3.3-4.6 5.6-6 2.4-1.4 5-2.1 7.9-2.1 2.6 0 4.9.5 6.8 1.5s3.5 2.3 4.7 3.8v-4.8h6.9v33.1H330v-4.9c-1.2 1.6-2.7 2.9-4.7 3.9s-4.3 1.6-6.9 1.6c-2.8 0-5.4-.7-7.8-2.2-2.4-1.5-4.2-3.5-5.6-6.1-1.4-2.6-2.1-5.6-2.1-8.9s.7-6.3 2.1-8.9zm23.6 3.1c-.9-1.7-2.2-3-3.7-3.8-1.5-.9-3.2-1.3-4.9-1.3s-3.4.4-4.9 1.3c-1.5.9-2.8 2.1-3.7 3.8-.9 1.7-1.4 3.6-1.4 5.9 0 2.3.5 4.3 1.4 6s2.2 3 3.7 3.9c1.5.9 3.2 1.4 4.9 1.4 1.8 0 3.4-.4 4.9-1.3 1.5-.9 2.8-2.2 3.7-3.9.9-1.7 1.4-3.7 1.4-6 0-2.4-.5-4.4-1.4-6zm28.2-9.8c1.7-.9 3.6-1.4 5.9-1.4v7.1H361c-2.7 0-4.7.7-6.1 2-1.4 1.4-2.1 3.7-2.1 7.1v17.4h-6.9v-33.1h6.9v4.8c1-1.6 2.3-2.9 4-3.9zm12 6.7c1.4-2.6 3.3-4.6 5.7-6 2.4-1.4 5.2-2.1 8.4-2.1 4 0 7.3 1 9.9 2.9 2.6 1.9 4.4 4.6 5.3 8.1h-7.4c-.6-1.6-1.6-2.9-2.9-3.8-1.3-.9-3-1.4-5-1.4-2.8 0-5 1-6.7 3-1.7 2-2.5 4.8-2.5 8.3 0 3.6.8 6.4 2.5 8.4s3.9 3 6.7 3c4 0 6.6-1.7 7.9-5.2h7.4c-1 3.4-2.8 6-5.4 8-2.6 2-5.9 3-9.9 3-3.2 0-6-.7-8.4-2.1-2.4-1.4-4.4-3.4-5.7-6-1.4-2.6-2.1-5.6-2.1-9s.8-6.5 2.2-9.1zm60.2-6.4c2 1.1 3.5 2.7 4.7 4.8 1.1 2.1 1.7 4.7 1.7 7.7v19.5h-6.8v-18.5c0-3-.7-5.2-2.2-6.8-1.5-1.6-3.5-2.4-6.1-2.4s-4.6.8-6.1 2.4c-1.5 1.6-2.3 3.9-2.3 6.8v18.5H405v-44.5h6.9v15.2c1.2-1.4 2.6-2.5 4.4-3.2 1.8-.8 3.7-1.1 5.9-1.1 2.5-.1 4.8.5 6.8 1.6z" style="enable-background:new"/></svg>