<svg id="Layer_1" data-name="Layer 1" xmlns="http://www.w3.org/2000/svg" width="646.4" height="66" viewBox="0 0 646.4 66">
  <path d="M522,20.2a17.78,17.78,0,0,1-5.4,13.4c-3.6,3.5-8.4,5.2-14.4,5.2h-7.7V64.3H482.2V1.7h19.1c6.6,0,11.7,1.7,15.3,5S522,14.5,522,20.2Zm-11.7-.1a7.46,7.46,0,0,0-2.3-5.9c-1.5-1.3-3.8-2-6.8-2h-6.7v16h7.1a9,9,0,0,0,6.4-2.1A7.83,7.83,0,0,0,510.3,20.1Zm66.1,44.2h-14L547.1,41.4c-.6-1-1.2-1.9-1.8-2.8a12.8,12.8,0,0,1-1.2-2.2c0,.4.1,1.1.1,2s.1,1.9.1,3v23H532V1.7h18.5c6.9,0,12.2,1.6,15.9,4.9s5.6,7.8,5.6,13.6c0,4.6-1.2,8.4-3.5,11.2a15.38,15.38,0,0,1-10,5.1h-.6c.5.7.9,1.2,1.2,1.7Zm-16.2-44a7.33,7.33,0,0,0-2.4-5.9c-1.6-1.4-3.9-2.1-7-2.1h-6.6V28.2h7c3,0,5.2-.7,6.7-2A7.46,7.46,0,0,0,560.2,20.3ZM646.4,33c0,9.4-3.1,17.3-9.2,23.6S623.4,66,614.1,66s-17-3.1-23.1-9.4-9.3-14.1-9.3-23.4c0-9.6,3.1-17.5,9.2-23.8S604.8,0,614.2,0s17,3.1,23.1,9.4,9.1,14.1,9.1,23.6Zm-12.6,0c0-6.5-1.8-11.8-5.3-15.7s-8.3-5.9-14.3-5.9-10.8,2-14.4,5.9-5.4,9.1-5.4,15.7,1.8,11.7,5.4,15.6,8.4,5.9,14.4,5.9,10.7-1.9,14.3-5.8S633.8,39.6,633.8,33Z" transform="translate(0)" style="fill:#fff"/>
  <path d="M299.6,1.7C280.5,1.7,265,15.7,265,33s15.5,31.3,34.6,31.3,34.6-14,34.6-31.3S318.7,1.7,299.6,1.7Zm0,54.2c-13.9,0-25.1-10.3-25.1-22.9s11.3-22.9,25.1-22.9S324.7,20.4,324.7,33,313.5,55.9,299.6,55.9ZM72.3,11.8H82.7V54.1H72.3v8.2h70.1V42.5H131.8V54.1H93.3V37.4h17.1v7.1H121V22.1H110.4v7H93.3V11.8h38.5V23.4h10.6V3.6H72.3Zm77.6,0h10.5V54.1H149.9v8.2h31.5V54.1H171V11.8h10.4V3.6H149.9Z" transform="translate(0)" style="fill:#fff"/>
  <path d="M233.9,27.6,255,11.8h9.4V3.6H234.5v8.2h6.1L209.8,35V11.8h10.4V3.6H188.8v8.2h10.4V54.1H188.8v8.2h31.4V54.1H209.8V45.7L226,33.6l18.2,20.5h-9.7v8.2h31.3V54.1h-8.4Zm-200.7.7c-12.8,0-23.5-.2-23.5-9,0-8.4,15-9.2,20.3-9.2s24.4,3.1,24.4,10.4v2.9H65V3.6H54.4V7.5C50.1,5.7,40.7,1.9,30.1,1.9S.1,4.4,0,19.5C-.1,34.9,15.5,37.1,32.9,37.1c10,0,23.2-.5,23.2,8.9S40.4,56.4,35.5,56.4,11.7,54.6,11.7,45.8V42.5H1.2V62.3H11.8V59c3.9,2.4,13.9,5.5,24.4,5.5S66,62.8,66,45.8,46,28.3,33.2,28.3ZM403.8,1.6h4V64.3h-4Z" transform="translate(0)" style="fill:#fff"/>
</svg>