<?xml version="1.0" standalone="no"?>
<!DOCTYPE svg PUBLIC "-//W3C//DTD SVG 20010904//EN"
 "http://www.w3.org/TR/2001/REC-SVG-20010904/DTD/svg10.dtd">
<svg version="1.0" xmlns="http://www.w3.org/2000/svg"
 width="280.000000pt" height="280.000000pt" viewBox="0 0 280.000000 280.000000"
 preserveAspectRatio="xMidYMid meet">
<metadata>
Created by potrace 1.14, written by Peter Selinger 2001-2017
</metadata>
<g transform="translate(0.000000,280.000000) scale(0.100000,-0.100000)"
fill="#000000" stroke="none">
<path d="M1733 2561 c-28 -9 -60 -24 -71 -34 -24 -22 -161 -33 -175 -14 -6 8
-7 7 -4 -4 3 -10 -3 -33 -14 -53 -10 -20 -19 -46 -19 -57 0 -13 -21 -42 -50
-70 -40 -39 -50 -55 -50 -82 0 -18 -5 -38 -12 -45 -9 -9 -3 -29 27 -87 39 -78
53 -88 116 -88 24 0 29 -6 41 -51 10 -38 21 -56 45 -71 21 -14 40 -40 59 -83
22 -53 36 -69 83 -101 31 -21 76 -48 101 -61 24 -12 53 -34 63 -47 20 -25 45
-27 90 -8 24 10 14 -14 -44 -100 -26 -38 -53 -87 -60 -108 -7 -21 -20 -46 -29
-55 -8 -9 -22 -30 -30 -46 -15 -29 -85 -105 -130 -141 -14 -11 -59 -58 -100
-103 -87 -97 -130 -125 -220 -142 -36 -6 -117 -31 -180 -55 -166 -63 -242 -86
-315 -99 -35 -7 -70 -14 -105 -21 -38 -8 -70 -15 -123 -25 -42 -9 -140 -7
-266 4 -50 5 -172 -62 -244 -132 -31 -31 -57 -62 -57 -68 0 -29 33 -20 84 21
30 25 57 45 60 45 3 0 1 -11 -4 -24 -7 -19 -4 -28 16 -47 15 -14 22 -29 19
-40 -9 -28 21 -50 52 -38 19 7 35 6 55 -2 24 -10 32 -9 48 6 14 13 17 22 9 31
-13 16 -2 22 57 29 58 7 138 31 177 52 19 10 50 14 90 13 34 -1 150 -3 259 -4
181 -1 281 8 383 38 6 1 35 10 65 19 52 16 91 25 116 26 5 1 20 10 32 22 13
11 111 79 218 151 113 75 227 160 271 201 42 40 77 66 81 61 31 -46 139 -179
179 -221 28 -29 66 -77 86 -107 20 -30 74 -100 119 -155 46 -55 92 -113 103
-128 30 -42 140 -215 151 -238 6 -13 10 308 12 884 1 497 0 907 -3 909 -3 3
-72 5 -155 5 -127 1 -152 -2 -168 -17 -32 -28 -85 -31 -134 -7 -88 42 -145
124 -154 221 -6 61 -9 73 -40 165 -30 93 -82 151 -155 174 -64 20 -194 21
-256 2z"/>
</g>
</svg>
