<svg version="1.2" baseProfile="tiny" xmlns="http://www.w3.org/2000/svg" width="138.925" height="44.854" viewBox="0 0 138.925 44.854"><path fill="#fff" d="M86.18 6.589c-1.817 0-3.295-1.477-3.295-3.294S84.362 0 86.18 0s3.295 1.478 3.295 3.295-1.478 3.294-3.295 3.294M86.181 9.581a3.145 3.145 0 0 0-3.144 3.143v19.494a3.145 3.145 0 0 0 3.144 3.145 3.145 3.145 0 0 0 3.143-3.145V12.724a3.145 3.145 0 0 0-3.143-3.143M111.197 9.581a3.145 3.145 0 0 0-3.143 3.143v11.528c-.134 2.106-.914 6.124-4.888 6.124h-.006c-3.974 0-4.751-4.018-4.888-6.124V12.724a3.144 3.144 0 0 0-6.287 0v10.08c0 6.496 2.917 9.623 5.769 11.136 2.731 1.447 5.405 1.422 5.405 1.422l.004-.004.002.004s2.677.025 5.404-1.422c2.855-1.514 5.77-4.641 5.77-11.136v-10.08a3.141 3.141 0 0 0-3.142-3.143M21.83 9.581a3.143 3.143 0 0 0-3.143 3.143v1.088c-1.548-1.809-4.325-4.231-8.114-4.231C4.524 9.581 0 15.041 0 21.756s3.048 13.606 10.43 13.606c4.298 0 6.861-2.305 8.257-4.756v1.612a3.144 3.144 0 0 0 3.143 3.144 3.144 3.144 0 0 0 3.143-3.144V12.724a3.144 3.144 0 0 0-3.143-3.143m-3.162 12.903v.225c0 1.476-.953 8.096-6.334 8.096-5.38 0-6.334-6.286-6.334-8.096 0-1.81.571-8.668 6.143-8.668s6.525 5.62 6.525 8.43v.013zM69.646 9.581c-3.82 0-6.608 2.46-8.15 4.274v-1.131a3.144 3.144 0 0 0-6.287 0v28.987a3.144 3.144 0 0 0 6.287 0V30.542c1.39 2.474 3.959 4.819 8.292 4.819 7.382 0 10.431-6.891 10.431-13.605S75.693 9.581 69.646 9.581m-1.763 21.224c-5.382 0-6.334-6.62-6.334-8.096V22.471c0-2.81.952-8.43 6.525-8.43 5.571 0 6.144 6.858 6.144 8.668 0 1.81-.952 8.096-6.335 8.096M42.171 9.581c-3.819 0-6.608 2.46-8.15 4.274v-1.131a3.143 3.143 0 0 0-6.286 0v28.987a3.144 3.144 0 0 0 6.286 0V30.542c1.39 2.474 3.959 4.819 8.293 4.819 7.381 0 10.429-6.891 10.429-13.605S48.219 9.581 42.171 9.581m-1.762 21.224c-5.382 0-6.334-6.62-6.334-8.096V22.471c0-2.81.952-8.43 6.524-8.43s6.144 6.858 6.144 8.668c0 1.81-.952 8.096-6.334 8.096M128.223 31.602c3.176 0 4.568-1.385 4.568-3.871 0-2.722-8.915-3.927-11.171-5.07-2.253-1.144-4.191-3.142-4.191-6.064 0-2.921 2.891-7.143 10.067-7.143s9.968 4.16 9.968 5.366c0 1.207-.443 2.729-2.476 2.729s-3.27-2.175-4.028-2.933c-.692-.695-1.801-1.352-3.592-1.352-1.685 0-4.254.492-4.254 3.079 0 2.857 7.144 3.62 10.063 4.477 2.921.857 5.747 3.175 5.747 6.509s-2.256 8.034-11.144 8.034c-8.891 0-10.638-5.146-10.638-6.733s1.112-2.572 2.571-2.572c.747 0 1.716.637 2.311 1.947.858 1.887 3.09 3.597 6.199 3.597" /></svg>